<?xml version="1.0" standalone="no"?>
<!DOCTYPE svg PUBLIC "-//W3C//DTD SVG 20010904//EN"
 "http://www.w3.org/TR/2001/REC-SVG-20010904/DTD/svg10.dtd">
<svg version="1.0" xmlns="http://www.w3.org/2000/svg"
 width="2048.000000pt" height="2048.000000pt" viewBox="0 0 2048.000000 2048.000000"
 preserveAspectRatio="xMidYMid meet">
<metadata>
Created by potrace 1.14, written by Peter Selinger 2001-2017
</metadata>
<g transform="translate(0.000000,2048.000000) scale(0.100000,-0.100000)"
fill="#000000" stroke="none">
<path d="M9196 17653 c-1 -1 -52 -4 -114 -7 -61 -3 -115 -7 -119 -9 -5 -2 -26
-5 -48 -5 -22 -1 -56 -3 -75 -6 -19 -3 -57 -8 -85 -11 -68 -7 -117 -17 -125
-25 -3 -3 -23 -19 -45 -36 -34 -26 -44 -30 -67 -22 -15 5 -30 18 -33 29 -8 25
-41 42 -85 44 -19 2 -73 6 -120 10 -47 4 -112 9 -145 11 -102 6 -444 6 -454 0
-5 -4 -12 -2 -16 4 -4 6 -11 8 -16 4 -6 -3 -29 -7 -52 -9 -41 -3 -102 -11
-142 -19 -41 -9 -74 -26 -84 -44 -14 -25 19 -62 57 -63 24 0 24 -1 7 -8 -11
-5 -25 -6 -31 -4 -7 2 -15 -1 -19 -6 -3 -6 -10 -9 -13 -7 -6 4 -100 -13 -167
-29 -23 -6 -60 -14 -92 -22 -13 -3 -121 -39 -240 -80 -120 -41 -224 -75 -230
-75 -7 -1 -13 -5 -13 -9 0 -4 -17 -14 -37 -22 -44 -18 -90 -55 -94 -77 -4 -22
11 -61 22 -55 5 4 16 2 24 -2 11 -7 -9 -24 -80 -73 -52 -35 -132 -99 -177
-142 l-81 -77 -53 3 c-35 3 -75 -3 -116 -16 -35 -11 -69 -20 -75 -21 -7 0 -13
-5 -13 -10 0 -6 -3 -8 -6 -5 -3 4 -24 -2 -47 -12 -51 -21 -79 -33 -89 -35 -5
-2 -10 -4 -13 -5 -3 -1 -8 -3 -12 -5 -38 -10 -245 -112 -287 -140 -20 -14 -41
-25 -47 -25 -6 0 -7 -4 -4 -10 3 -5 2 -10 -3 -10 -15 0 -87 -61 -85 -71 2 -5
-2 -9 -7 -9 -6 0 -8 -12 -5 -27 6 -36 2 -42 -75 -93 -36 -24 -66 -47 -68 -52
-2 -4 -12 -8 -23 -8 -10 0 -19 -4 -19 -9 0 -5 -12 -12 -27 -16 -15 -3 -31 -11
-34 -16 -3 -6 -12 -12 -20 -13 -20 -4 -53 -18 -59 -26 -3 -3 -41 -24 -85 -45
-44 -22 -83 -44 -87 -50 -5 -7 -8 -7 -8 0 0 7 -3 7 -8 0 -4 -6 -24 -19 -44
-30 -21 -11 -38 -24 -38 -29 0 -5 -3 -7 -6 -3 -7 6 -31 -12 -86 -66 -40 -39
-45 -59 -25 -107 5 -11 -16 -30 -76 -68 -45 -29 -86 -52 -91 -51 -5 0 -12 -3
-15 -8 -9 -11 -59 -45 -103 -68 -21 -11 -38 -23 -38 -27 0 -5 -5 -8 -12 -8
-13 0 -111 -61 -116 -72 -2 -5 -10 -8 -18 -8 -8 0 -14 -4 -14 -10 0 -5 -4 -10
-10 -10 -5 0 -19 -8 -31 -17 -26 -22 -51 -42 -84 -68 -14 -11 -42 -35 -63 -52
-20 -18 -45 -35 -55 -39 -9 -3 -15 -10 -12 -15 4 -5 2 -9 -3 -9 -8 0 -147
-115 -191 -157 -7 -8 -14 -25 -15 -38 0 -14 -5 -25 -10 -25 -5 0 4 -10 19 -22
27 -21 30 -21 72 -6 l44 16 -30 -26 c-43 -38 -87 -72 -145 -112 -28 -19 -53
-38 -54 -42 -2 -5 -10 -8 -18 -8 -8 0 -14 -4 -14 -10 0 -5 -7 -10 -15 -10 -8
0 -15 -5 -15 -10 0 -6 -7 -13 -15 -16 -21 -9 -82 -63 -200 -180 l-102 -101 11
-34 c13 -41 48 -52 91 -31 17 8 32 18 35 21 6 7 60 32 60 27 0 -1 -19 -24 -42
-49 -62 -67 -88 -97 -133 -152 -21 -28 -42 -52 -45 -55 -3 -3 -18 -23 -35 -45
-16 -22 -37 -49 -47 -59 -10 -11 -18 -26 -18 -33 0 -8 -4 -11 -10 -8 -5 3 -10
2 -10 -2 0 -10 -25 -45 -58 -78 -12 -13 -22 -27 -22 -30 0 -3 -8 -14 -17 -24
-27 -29 -35 -40 -81 -111 -23 -36 -47 -71 -52 -77 -6 -7 -8 -13 -5 -13 3 0 -6
-17 -20 -37 -14 -21 -25 -43 -25 -50 0 -7 -5 -13 -11 -13 -5 0 -7 -4 -4 -10 3
-5 1 -10 -6 -10 -7 0 -10 -3 -7 -6 3 -3 -11 -38 -31 -77 -20 -40 -36 -79 -35
-87 0 -8 2 -25 2 -37 2 -27 46 -35 82 -13 23 13 24 13 13 -1 -7 -9 -10 -19 -6
-22 3 -4 1 -7 -5 -7 -7 0 -12 -4 -12 -9 0 -5 -5 -22 -12 -38 -6 -15 -11 -31
-10 -35 1 -5 -3 -8 -9 -8 -5 0 -8 -4 -5 -9 3 -5 -1 -14 -9 -21 -8 -7 -12 -16
-10 -20 3 -5 -3 -24 -14 -43 -11 -19 -17 -38 -14 -41 4 -3 1 -6 -5 -6 -7 0
-12 -9 -12 -20 0 -11 -5 -20 -11 -20 -5 0 -7 -5 -4 -10 4 -6 3 -16 -3 -23 -5
-7 -24 -50 -42 -97 -18 -47 -38 -99 -46 -117 -8 -17 -14 -38 -14 -47 0 -9 -5
-16 -10 -16 -6 0 -9 -3 -8 -7 3 -16 -15 -63 -24 -63 -5 0 -6 -4 -3 -10 3 -5 0
-24 -8 -42 -28 -63 -47 -118 -40 -118 3 0 -2 -9 -12 -20 -10 -11 -15 -20 -11
-20 3 0 -1 -17 -10 -37 -9 -21 -17 -45 -18 -53 -1 -8 -7 -26 -13 -40 -5 -14
-16 -46 -24 -72 -7 -27 -16 -48 -19 -48 -3 0 -7 -12 -8 -26 -1 -15 -7 -33 -13
-40 -6 -8 -8 -14 -4 -14 4 0 2 -6 -4 -13 -6 -8 -8 -17 -4 -20 3 -4 0 -13 -7
-22 -7 -8 -9 -15 -5 -15 4 0 2 -7 -5 -15 -6 -8 -9 -19 -5 -25 3 -5 2 -10 -3
-10 -5 0 -9 -6 -9 -12 0 -7 -7 -36 -16 -65 -8 -28 -13 -54 -10 -57 4 -3 2 -6
-3 -6 -5 0 -11 -12 -12 -26 -1 -15 -7 -33 -13 -41 -7 -7 -9 -16 -6 -19 3 -3
-1 -28 -9 -54 -28 -94 -66 -245 -65 -262 0 -10 -4 -18 -9 -18 -4 0 -7 -8 -5
-17 1 -10 -2 -23 -7 -30 -5 -7 -7 -17 -4 -22 4 -5 2 -12 -3 -15 -5 -4 -8 -14
-6 -24 1 -9 -2 -22 -7 -28 -5 -7 -8 -16 -7 -20 1 -5 0 -11 -1 -14 -3 -8 -20
-91 -25 -120 -1 -8 -5 -22 -9 -30 -3 -8 -8 -28 -10 -45 -3 -16 -7 -43 -10 -60
-3 -16 -7 -39 -9 -50 -1 -11 -6 -25 -10 -32 -4 -6 -4 -19 0 -29 3 -10 2 -15
-3 -12 -5 4 -10 -8 -10 -25 -1 -30 -8 -80 -18 -146 -3 -14 -8 -46 -11 -71 -4
-25 -11 -50 -16 -57 -7 -7 -6 -14 1 -18 6 -3 7 -11 4 -17 -7 -11 -10 -29 -18
-103 -3 -22 -8 -65 -12 -95 -4 -30 -7 -65 -8 -77 0 -13 -3 -23 -7 -23 -4 0 -4
-13 1 -30 5 -16 5 -32 1 -34 -4 -3 -9 -27 -10 -53 -2 -26 -4 -66 -6 -88 -6
-61 -14 -278 -20 -495 -3 -107 -7 -205 -9 -217 -3 -13 0 -25 5 -28 5 -4 6 -12
2 -18 -4 -7 -8 -305 -9 -663 0 -358 -4 -656 -9 -664 -5 -8 -4 -11 2 -7 6 4 9
-30 8 -91 0 -53 3 -105 7 -114 6 -11 5 -18 -2 -18 -8 0 -8 -6 0 -20 7 -14 8
-26 0 -39 -5 -11 -6 -22 -2 -25 5 -3 10 -29 11 -58 3 -64 8 -126 16 -193 3
-27 7 -66 9 -85 1 -20 6 -42 11 -49 6 -10 4 -12 -5 -6 -9 6 -11 4 -5 -5 5 -7
10 -27 11 -44 2 -17 5 -47 8 -66 3 -19 8 -57 12 -85 8 -67 12 -95 18 -125 5
-28 18 -112 22 -150 1 -14 3 -27 4 -30 1 -3 3 -9 5 -15 1 -5 3 -12 4 -15 1 -3
4 -27 6 -55 3 -27 7 -61 10 -75 12 -49 17 -85 19 -122 0 -21 5 -38 9 -38 5 0
7 -8 6 -17 -1 -10 3 -45 11 -78 7 -33 13 -66 13 -72 0 -7 3 -13 7 -13 3 0 6
-8 6 -17 1 -24 11 -71 22 -110 6 -17 8 -34 4 -37 -3 -3 0 -6 7 -6 6 0 11 -6
10 -13 -3 -14 18 -93 31 -122 6 -11 12 -31 14 -45 3 -14 6 -27 7 -30 1 -3 3
-9 4 -15 2 -5 4 -13 5 -17 1 -5 3 -11 5 -15 1 -5 4 -15 7 -23 5 -12 29 -99 34
-120 0 -3 3 -12 6 -20 7 -19 42 -133 43 -140 0 -3 4 -11 8 -17 5 -7 6 -13 2
-13 -3 0 1 -13 9 -29 9 -16 12 -31 9 -35 -4 -3 0 -6 7 -6 7 0 11 -3 7 -6 -5
-5 8 -39 50 -134 9 -19 17 -37 18 -40 0 -3 9 -20 18 -37 10 -18 15 -33 12 -33
-2 0 7 -20 20 -44 14 -25 25 -52 25 -60 0 -9 5 -16 10 -16 6 0 10 -8 10 -17 0
-10 7 -27 15 -37 8 -10 12 -23 9 -27 -3 -5 0 -9 5 -9 6 0 11 -5 11 -10 0 -11
33 -89 56 -132 8 -15 14 -29 14 -30 -1 -2 7 -21 16 -43 9 -22 17 -46 17 -52 0
-7 3 -13 7 -13 3 0 12 -17 19 -38 15 -45 22 -62 51 -129 13 -29 23 -60 23 -68
0 -8 5 -15 10 -15 5 0 7 -7 3 -15 -3 -8 -1 -15 4 -15 8 0 21 -28 26 -57 1 -7
9 -27 18 -44 9 -18 16 -36 16 -41 0 -4 8 -27 19 -51 19 -44 45 -108 47 -117 0
-3 9 -25 20 -50 10 -25 18 -48 16 -52 -1 -5 3 -8 8 -8 6 0 10 -7 10 -15 0 -8
4 -23 9 -33 5 -9 33 -65 61 -125 29 -59 56 -107 61 -107 5 0 9 -7 9 -15 0 -8
5 -15 10 -15 6 0 10 -6 10 -14 0 -13 29 -52 77 -103 13 -13 23 -28 23 -33 0
-5 9 -12 20 -15 11 -3 20 -11 20 -16 0 -11 61 -68 73 -69 9 0 4 27 -18 109
-10 33 -21 61 -24 61 -11 0 -11 39 0 45 5 4 6 -2 2 -11 -4 -12 -3 -15 6 -10 6
4 10 4 9 -1 -1 -4 4 -18 11 -31 10 -19 15 -21 27 -11 13 10 18 6 15 -14 -1 -4
7 -10 16 -14 10 -4 25 -14 33 -22 8 -9 22 -17 30 -19 8 -2 19 -10 23 -18 5 -8
12 -12 18 -9 5 4 9 1 9 -5 0 -7 9 -9 23 -5 14 4 18 3 9 -3 -15 -10 -1 -25 36
-36 12 -4 22 -12 22 -17 0 -5 9 -9 20 -9 11 0 20 -4 20 -8 0 -10 69 -46 88
-47 7 0 16 -5 20 -10 8 -12 64 -39 74 -37 5 1 8 -3 8 -8 0 -6 7 -10 16 -10 8
0 12 -5 9 -10 -4 -6 -3 -10 2 -9 4 1 21 -3 37 -10 16 -6 37 -9 45 -6 10 3 9
-1 -4 -11 -20 -16 -20 -16 1 -10 13 4 26 1 34 -9 9 -11 16 -12 25 -5 10 8 15
8 21 -1 4 -8 3 -9 -4 -5 -7 4 -12 2 -12 -4 0 -7 8 -9 20 -5 12 4 20 2 20 -5 0
-6 4 -9 9 -5 5 3 17 -3 27 -12 20 -21 42 -25 51 -11 4 7 1 8 -7 3 -9 -5 -11
-4 -6 4 11 17 26 3 19 -17 -6 -14 -4 -15 9 -4 13 10 18 10 24 1 5 -8 3 -9 -6
-4 -9 5 -11 4 -6 -3 5 -9 13 -9 29 0 20 10 21 9 9 -5 -11 -13 -10 -15 7 -10
12 3 19 9 16 13 -3 5 -1 11 4 14 5 4 8 -4 7 -17 -2 -17 3 -23 18 -24 41 -3 61
-8 69 -18 5 -6 7 -4 4 5 -2 8 -11 15 -20 15 -18 0 -25 17 -9 23 5 1 22 -12 38
-30 15 -18 25 -25 21 -15 -4 10 -3 16 2 12 5 -3 12 1 14 7 4 10 6 10 6 1 1 -7
7 -10 15 -7 13 5 41 -28 31 -38 -2 -2 5 -4 15 -5 11 -1 22 2 25 8 4 5 11 9 17
9 7 0 7 -5 -1 -14 -10 -11 -7 -14 16 -15 57 -1 63 -2 57 -13 -5 -7 -1 -9 9 -5
10 4 17 1 17 -5 0 -6 3 -9 6 -6 3 4 24 -2 47 -12 38 -17 42 -17 54 -2 12 15
13 15 7 1 -7 -23 13 -34 33 -17 10 8 14 8 10 1 -4 -6 -3 -14 3 -18 5 -3 10 -1
10 6 0 8 4 8 13 2 6 -6 20 -9 30 -8 9 2 17 0 17 -4 0 -3 23 -7 50 -8 46 -1 50
1 38 15 -10 14 -9 14 8 -1 11 -9 26 -17 32 -17 7 0 12 -5 12 -11 0 -5 4 -8 9
-5 5 3 12 -1 15 -10 5 -14 9 -14 23 -3 15 12 16 12 10 -3 -3 -10 -1 -20 5 -24
7 -4 8 -3 4 4 -4 7 -2 12 3 12 6 0 11 -6 11 -12 1 -8 6 -6 14 5 10 12 16 15
21 7 5 -8 11 -5 20 7 7 10 17 15 21 10 4 -4 2 -7 -4 -7 -7 0 -12 -5 -12 -11 0
-5 4 -8 9 -4 5 3 12 1 16 -5 4 -6 11 -8 16 -4 19 11 59 14 59 4 0 -6 -5 -8
-11 -5 -6 4 -5 -2 2 -14 15 -22 31 -9 22 18 -3 11 0 10 13 -4 14 -17 16 -17
11 -3 -5 13 -1 18 14 18 11 0 17 5 14 10 -4 6 -16 8 -28 5 -19 -5 -20 -5 -4 5
21 13 60 3 51 -12 -4 -7 -2 -8 5 -4 6 4 9 12 6 17 -12 19 21 8 40 -13 12 -15
20 -18 23 -10 2 7 9 9 14 6 7 -4 8 -2 4 4 -4 6 -13 9 -21 5 -13 -4 -19 5 -17
27 0 3 -12 5 -28 5 -15 0 -26 -3 -25 -6 2 -3 -11 -5 -30 -5 -18 1 -31 5 -28 9
2 4 -7 6 -21 3 -14 -3 -28 -1 -31 3 -7 12 37 49 60 51 35 4 56 0 51 -8 -3 -5
0 -9 7 -9 7 0 13 8 13 17 0 12 -6 15 -20 12 -13 -4 -27 4 -44 24 -13 16 -21
24 -18 17 7 -12 -69 -12 -79 0 -3 4 -2 5 2 2 3 -3 15 3 25 12 18 16 18 16 12
-1 -7 -17 -5 -17 26 -1 31 16 32 19 17 30 -16 12 -16 14 10 35 15 12 22 19 15
15 -6 -3 -12 -1 -12 5 0 6 -4 9 -9 5 -5 -3 -12 -1 -16 4 -3 6 -12 8 -20 4 -9
-3 -15 1 -15 11 0 9 -6 13 -14 10 -8 -3 -17 0 -22 7 -5 8 -3 10 6 4 8 -5 18
-2 26 9 8 12 14 14 19 6 5 -8 12 -7 23 2 15 12 16 11 4 -4 -8 -10 -20 -14 -30
-11 -9 3 -14 3 -10 -1 11 -13 42 -14 57 -2 11 8 13 8 7 -1 -4 -7 -2 -13 3 -13
6 0 11 4 11 10 0 5 8 7 18 4 16 -5 16 -5 0 6 -16 10 -16 13 -3 34 14 21 14 24
0 29 -8 4 -15 11 -15 18 0 6 7 8 16 5 8 -3 12 -2 9 4 -3 6 -15 10 -26 10 -10
0 -19 5 -19 11 0 8 -6 7 -17 -2 -10 -7 -14 -9 -10 -4 4 5 -1 14 -12 20 -20 10
-20 11 2 24 20 13 21 13 8 -2 -9 -11 -10 -17 -2 -18 6 -1 19 -2 29 -3 9 -1 26
-7 38 -13 12 -7 25 -8 35 -2 12 7 12 9 -1 10 -8 1 -18 1 -22 0 -5 0 -8 5 -8
12 0 7 13 12 32 11 18 -1 39 3 46 9 7 6 12 6 11 1 -4 -23 3 -26 23 -8 16 14
20 15 16 4 -4 -11 2 -16 24 -17 20 0 26 2 17 7 -7 5 -17 6 -21 4 -4 -3 -8 0
-8 5 0 6 6 11 13 11 8 0 7 4 -3 10 -13 9 -7 14 13 11 16 -2 5 9 -22 24 -20 10
-32 11 -36 5 -4 -6 -3 -10 2 -9 19 3 33 -2 33 -12 0 -6 -8 -8 -19 -4 -11 3
-22 1 -26 -5 -10 -17 -25 -11 -18 8 6 15 5 16 -12 2 -10 -8 -16 -10 -12 -4 4
7 0 15 -9 18 -8 3 -12 11 -8 17 4 8 3 9 -4 5 -6 -4 -19 -2 -29 3 -10 5 -29 13
-43 18 -24 10 -24 10 -2 15 14 4 20 2 15 -5 -4 -6 0 -8 10 -4 9 3 19 2 22 -3
4 -6 15 -10 27 -10 17 0 18 3 8 15 -7 8 -16 12 -21 9 -5 -3 -12 2 -15 11 -4 9
-12 14 -19 11 -8 -3 -10 4 -7 20 2 13 9 24 14 24 5 0 6 5 2 12 -5 7 -3 8 5 3
9 -5 10 -10 2 -18 -6 -6 -11 -16 -11 -22 1 -5 10 1 20 14 16 18 23 21 34 12
11 -9 15 -9 18 1 3 8 6 7 10 -4 7 -16 -7 -19 -28 -5 -6 3 -14 4 -18 0 -13 -13
-5 -20 24 -21 16 0 35 -4 42 -9 25 -15 39 -12 33 7 -4 13 0 20 15 25 11 4 18
10 15 15 -3 5 0 10 7 12 8 3 6 7 -5 11 -9 3 -16 3 -16 -1 3 -20 -3 -23 -18
-11 -15 12 -16 12 -10 -3 8 -22 -11 -34 -26 -19 -9 9 -8 11 3 6 11 -4 15 2 16
20 1 14 -2 23 -6 20 -5 -3 -12 -1 -15 5 -4 6 -1 9 7 8 7 -2 12 2 11 9 -2 7 4
10 12 6 11 -3 13 -12 9 -27 -7 -21 -7 -21 15 -2 23 21 55 31 45 15 -3 -5 0 -9
7 -9 7 0 9 -3 6 -6 -4 -4 -15 -1 -24 7 -16 13 -17 12 -4 -4 8 -11 21 -15 32
-12 13 4 18 2 16 -7 -2 -7 -2 -9 1 -5 2 4 11 2 20 -5 9 -8 13 -8 9 -2 -10 17
23 27 39 13 11 -9 14 -8 14 1 0 10 3 10 15 0 16 -13 11 -30 -8 -30 -7 0 -6 4
3 11 13 9 12 10 -2 5 -10 -3 -20 -1 -23 4 -8 12 -25 13 -25 1 0 -18 68 -32 88
-18 8 6 12 5 12 -4 0 -11 2 -11 10 1 5 8 10 10 10 3 0 -12 46 -11 58 2 4 5 -1
5 -10 2 -21 -7 -48 1 -48 15 0 5 6 6 13 2 8 -5 8 -2 -2 9 -7 9 -20 17 -27 17
-17 0 -18 12 -1 29 10 11 8 11 -12 1 -21 -11 -23 -10 -17 5 5 15 4 16 -9 5 -8
-7 -12 -16 -9 -21 3 -5 -3 -6 -12 -2 -12 4 -15 3 -10 -5 4 -7 2 -12 -3 -12
-12 0 -9 35 4 47 4 5 5 2 0 -6 -5 -9 -3 -12 5 -9 8 2 16 10 18 16 4 14 -34 16
-43 2 -8 -13 -35 -13 -35 0 0 5 3 9 8 9 19 -3 33 2 27 10 -3 5 -1 13 5 16 8 5
8 11 1 19 -6 7 -7 16 -3 20 4 4 -8 0 -25 -11 -18 -10 -33 -21 -33 -25 0 -5 -4
-8 -10 -8 -5 0 -9 3 -9 8 3 19 -2 25 -11 12 -7 -11 -10 -11 -10 -2 0 7 -5 10
-12 6 -7 -4 -8 -3 -4 4 4 7 13 12 21 12 18 0 27 29 14 48 -9 15 -10 14 -4 -3
5 -17 4 -18 -7 -5 -7 8 -19 19 -26 25 -9 7 -3 10 23 10 27 0 35 -4 35 -17 0
-10 5 -18 11 -18 5 0 8 4 5 8 -3 5 1 9 9 9 8 0 15 -7 15 -14 0 -8 4 -12 8 -9
5 3 14 -4 22 -14 8 -10 17 -17 22 -14 4 3 8 -2 8 -11 0 -9 -4 -14 -9 -11 -5 4
-7 -3 -4 -15 5 -19 7 -18 19 10 17 41 25 40 13 -1 -5 -18 -9 -33 -9 -34 0 -8
42 -9 47 -2 3 6 1 8 -5 4 -12 -7 -26 29 -17 44 4 6 15 4 30 -6 22 -14 24 -14
24 3 0 10 2 29 5 43 2 14 -2 35 -10 46 -18 30 -4 40 18 12 10 -13 16 -16 13
-7 -4 10 0 16 9 16 8 0 13 -4 11 -8 -3 -4 1 -9 9 -12 17 -7 15 15 -3 37 -13
15 -15 15 -28 -1 -8 -10 -12 -12 -8 -5 4 7 1 20 -7 29 -11 14 -11 16 1 8 10
-6 13 -4 9 7 -3 8 27 -17 66 -56 117 -114 160 -153 176 -159 10 -4 11 -6 2 -6
-13 -1 4 -22 42 -51 16 -12 18 -12 11 -1 -5 10 -4 12 3 7 7 -4 12 -15 12 -24
0 -15 2 -15 10 -2 7 11 10 12 10 2 0 -17 26 -43 33 -35 4 3 12 -6 18 -20 7
-15 16 -24 20 -21 5 3 9 1 9 -5 0 -14 58 -43 70 -36 6 3 10 0 10 -8 0 -8 11
-18 25 -21 14 -4 23 -10 21 -15 -3 -5 8 -14 24 -21 16 -7 27 -17 23 -23 -3 -6
-1 -7 5 -3 7 4 12 2 12 -3 0 -6 7 -11 15 -11 8 0 15 -5 15 -11 0 -8 6 -7 17 2
15 12 16 12 11 -2 -7 -19 33 -42 56 -33 8 3 17 1 21 -5 3 -7 0 -8 -9 -5 -9 3
-16 2 -16 -3 0 -9 58 -37 72 -34 4 0 4 -7 1 -16 -4 -11 -3 -14 5 -9 7 4 15 0
18 -9 4 -9 13 -14 21 -11 8 3 11 1 8 -4 -6 -9 8 -14 28 -11 4 0 7 -4 7 -10 0
-6 7 -9 15 -5 8 3 14 0 12 -7 -1 -7 5 -12 13 -12 22 -1 120 -47 120 -57 0 -4
5 -8 12 -8 6 0 20 -8 31 -18 15 -12 19 -13 13 -2 -6 12 -5 12 6 -1 7 -9 19
-14 26 -12 6 3 12 0 12 -6 0 -12 60 -46 60 -34 1 5 9 -2 19 -14 15 -18 20 -20
25 -8 3 8 11 15 18 15 8 0 9 -3 3 -8 -5 -4 -11 -13 -13 -20 -2 -10 2 -10 17
-3 16 9 18 8 13 -11 -3 -14 -1 -19 6 -14 6 3 13 2 17 -4 3 -5 17 -10 31 -10
13 0 24 -5 24 -11 0 -5 5 -7 10 -4 7 4 6 14 -1 28 -10 22 -10 22 6 2 9 -11 21
-19 27 -17 6 2 8 -4 5 -13 -4 -8 -2 -15 3 -15 6 0 10 5 10 11 0 5 5 7 10 4 6
-4 8 -11 5 -16 -3 -5 1 -6 10 -2 13 5 14 7 3 14 -7 5 -8 9 -2 9 6 0 14 -3 18
-7 4 -5 17 -8 28 -8 12 0 23 -6 26 -14 3 -8 0 -11 -7 -7 -6 4 -19 2 -28 -4
-17 -11 -17 -11 0 -6 10 3 20 0 23 -8 5 -12 9 -12 24 2 11 9 16 21 12 27 -4 6
1 2 10 -8 17 -18 23 -15 19 7 -1 5 4 5 11 -1 7 -6 21 -9 31 -8 9 2 17 -1 17
-6 0 -5 -11 -7 -24 -5 -19 3 -23 1 -19 -11 4 -11 8 -11 13 -3 5 8 10 9 14 2 3
-6 17 -9 31 -7 14 1 28 -2 32 -8 4 -6 1 -7 -7 -2 -8 5 -11 4 -7 -3 4 -5 15 -9
25 -7 9 1 23 -2 30 -8 8 -6 21 -12 30 -13 10 -1 30 -4 46 -7 16 -4 37 -2 47 4
13 6 19 6 19 -1 0 -5 8 -10 18 -10 10 0 28 -8 41 -17 14 -9 21 -11 17 -5 -5 8
-2 10 8 6 9 -3 16 -10 16 -14 0 -5 11 -7 25 -5 14 1 28 -2 31 -7 3 -4 10 -5
16 -2 14 9 87 11 82 3 -2 -4 16 -12 41 -18 25 -6 45 -14 45 -17 0 -3 -7 -4
-14 -1 -10 4 -13 1 -9 -9 4 -10 0 -12 -11 -8 -9 3 -16 2 -16 -3 0 -5 9 -9 20
-10 11 -1 20 3 20 10 0 6 6 3 13 -8 11 -14 16 -15 22 -5 5 9 4 11 -3 6 -7 -4
-12 -3 -12 3 0 5 9 9 19 8 11 0 17 -5 15 -9 -3 -4 0 -8 5 -8 6 0 11 7 11 16 0
8 5 12 10 9 6 -4 7 -12 4 -18 -5 -9 -4 -9 6 0 7 6 18 10 24 9 6 -2 8 -1 4 1
-18 10 -6 24 15 18 17 -5 19 -4 7 4 -13 9 -12 11 5 11 17 0 17 2 5 10 -13 8
-8 14 11 12 3 -1 6 6 6 14 0 19 -7 18 -24 -4 -8 -9 -4 3 7 27 18 35 19 45 8
52 -10 7 -10 9 0 9 19 0 27 -4 25 -12 -2 -5 8 -8 22 -8 16 0 25 6 25 16 0 9 5
12 12 8 7 -4 8 -3 4 5 -4 6 -12 9 -17 6 -5 -4 -9 -1 -9 5 0 6 -5 8 -11 4 -8
-4 -7 -9 2 -15 7 -4 10 -11 6 -16 -5 -4 -12 -1 -17 7 -13 21 18 53 45 46 11
-3 27 -1 35 4 11 7 11 10 2 10 -7 0 -10 5 -7 11 9 14 -26 46 -56 52 -13 3 -6
5 15 4 35 -2 40 1 47 27 l8 28 -22 -20 c-28 -26 -80 -18 -85 13 -2 14 0 16 6
7 9 -14 42 -6 42 10 0 5 -4 7 -9 3 -13 -7 -26 16 -14 24 6 3 12 12 15 20 3 12
9 10 25 -6 l21 -21 6 21 c6 25 -3 37 -31 40 -12 0 -19 6 -16 13 5 13 27 13 39
1 4 -4 12 -7 18 -7 6 0 4 5 -4 10 -8 5 -11 10 -7 10 17 0 -16 42 -40 51 -20 7
-24 12 -14 22 9 9 16 9 31 -1 11 -6 23 -12 27 -12 5 0 0 5 -10 11 -14 8 -16
14 -6 25 7 9 8 14 1 14 -6 0 -12 -5 -14 -11 -2 -6 -9 0 -16 15 -7 15 -8 26 -2
26 6 0 10 -4 10 -8 0 -5 7 -9 14 -9 12 0 13 5 4 21 -10 20 -10 20 8 4 17 -15
21 -15 39 -1 19 15 19 15 -4 8 -16 -5 -21 -4 -17 4 4 6 4 11 -1 10 -24 -4 -35
2 -29 17 5 14 4 15 -9 4 -12 -10 -15 -10 -15 1 -1 10 -4 9 -14 -3 -21 -28 -28
-21 -9 9 l17 28 -30 -25 c-16 -14 -23 -18 -16 -10 16 19 15 33 -2 27 -8 -3
-13 0 -12 9 2 12 8 17 19 13 50 -15 64 0 47 47 l-11 29 24 -23 c13 -13 28 -22
33 -20 5 1 20 -4 34 -12 22 -12 24 -12 12 2 -10 13 -8 15 15 10 16 -2 33 -9
39 -14 8 -5 14 -3 18 8 8 22 8 26 -4 19 -12 -7 -40 12 -40 26 0 10 29 7 46 -4
6 -3 14 -4 17 -1 8 8 -4 44 -15 44 -5 0 -7 9 -3 19 4 15 -1 24 -22 35 l-28 15
25 -3 c14 -1 31 -5 37 -9 6 -4 15 -2 19 4 4 7 3 9 -4 5 -6 -3 -13 -2 -17 4 -4
6 -10 8 -15 5 -5 -3 -12 0 -16 6 -4 8 -3 9 4 5 12 -7 16 10 12 47 -1 16 2 17
19 8 34 -19 37 -12 6 14 -16 13 -24 24 -17 25 6 0 12 -3 12 -7 0 -5 17 -19 38
-33 20 -14 39 -27 42 -30 3 -3 22 -14 43 -25 20 -11 37 -23 37 -27 0 -5 3 -7
8 -6 4 2 35 -15 70 -36 35 -21 65 -36 67 -34 6 5 -43 97 -70 134 -19 25 -64
70 -112 112 -26 22 -29 47 -9 68 8 8 13 25 10 38 -2 14 0 27 6 31 5 3 7 0 4
-8 -3 -8 -1 -18 5 -22 6 -3 11 -1 11 4 0 6 8 3 18 -6 11 -10 17 -22 14 -27 -3
-5 1 -6 9 -4 8 3 13 11 12 17 -2 6 1 11 7 11 5 0 -2 12 -15 26 -14 15 -25 34
-24 43 0 9 3 11 5 4 3 -7 12 -9 21 -6 8 3 19 0 23 -7 5 -7 15 -10 25 -6 13 5
15 9 6 20 -8 10 -8 21 -1 40 13 35 13 36 -6 36 -9 0 -12 5 -8 12 4 7 3 8 -4 4
-7 -4 -12 -1 -12 8 0 9 -4 16 -9 16 -12 0 -8 -24 5 -41 21 -27 28 -42 16 -35
-8 5 -12 -1 -12 -16 0 -18 -2 -20 -9 -8 -6 8 -7 18 -5 22 3 4 -2 5 -11 2 -11
-5 -14 -2 -9 9 3 9 13 14 22 11 16 -5 16 -5 0 8 -9 8 -15 23 -13 34 2 10 4 23
4 27 1 4 11 2 24 -5 12 -7 25 -11 30 -10 4 1 7 -3 7 -9 0 -7 10 -9 25 -7 14 3
28 1 32 -5 4 -6 1 -7 -7 -2 -9 6 -11 4 -6 -4 5 -7 14 -10 21 -7 7 2 23 -3 36
-12 21 -15 22 -14 16 3 -6 15 -5 16 8 5 8 -7 15 -9 15 -5 0 4 8 1 18 -6 14
-11 15 -11 5 0 -6 7 -9 20 -6 27 6 17 -15 46 -28 38 -5 -3 -7 -9 -4 -14 3 -5
1 -12 -5 -15 -6 -4 -9 -1 -8 6 2 6 -9 15 -24 20 -19 5 -28 3 -28 -4 0 -7 -4
-7 -12 1 -18 18 6 31 42 26 19 -3 29 0 33 11 8 19 33 20 41 0 3 -9 12 -12 23
-9 12 4 14 3 5 -3 -9 -7 -2 -14 23 -26 20 -10 34 -21 31 -26 -4 -5 3 -7 14 -4
11 3 20 0 20 -6 0 -6 5 -11 11 -11 5 0 8 4 5 8 -3 5 2 9 10 9 9 0 13 -6 9 -15
-3 -8 3 -16 15 -19 11 -3 18 -9 15 -13 -3 -5 -1 -11 5 -15 5 -3 10 -1 10 4 0
6 4 11 10 11 5 0 9 -3 9 -8 -4 -21 3 -24 16 -6 13 18 14 18 9 -6 -2 -14 -2
-19 2 -12 3 7 15 17 27 23 20 9 20 9 5 -4 -23 -18 -23 -22 2 -24 11 -1 18 2
15 7 -3 5 0 12 6 16 8 4 9 3 5 -4 -7 -11 6 -17 27 -13 5 1 5 -8 2 -20 -5 -13
-3 -19 3 -15 5 3 15 -1 22 -9 10 -12 16 -13 26 -4 10 8 14 8 14 0 0 -6 5 -11
11 -11 5 0 8 4 5 8 -2 4 5 9 17 9 15 2 18 0 9 -6 -11 -7 -10 -9 2 -14 9 -4 16
-2 16 3 0 6 5 10 11 10 5 0 7 -6 3 -12 -4 -7 -4 -10 1 -6 4 4 14 3 22 -3 7 -6
13 -8 13 -3 -1 13 -30 50 -36 46 -3 -2 -8 -1 -11 1 -2 3 7 4 22 3 19 -3 25 0
21 10 -3 8 -1 14 4 14 6 0 10 -8 10 -17 0 -14 2 -15 9 -4 7 11 11 10 20 -7 7
-14 8 -23 1 -27 -5 -3 -10 -13 -10 -21 0 -11 6 -13 20 -9 11 3 20 2 20 -4 0
-5 9 -9 19 -8 11 0 17 5 15 9 -3 5 -10 6 -15 3 -5 -4 -9 1 -9 10 0 10 5 13 13
9 7 -4 9 -3 4 2 -13 14 -30 11 -45 -6 -12 -13 -12 -12 -4 4 5 10 7 27 5 37 -3
11 0 19 6 19 7 0 9 -4 6 -10 -3 -5 5 -15 19 -22 14 -6 26 -15 26 -19 0 -5 7
-6 15 -3 8 4 15 1 15 -5 0 -6 7 -8 15 -5 8 4 15 1 15 -5 0 -6 6 -11 14 -11 8
0 17 -7 20 -15 3 -9 11 -15 18 -13 7 1 49 -15 93 -37 44 -22 82 -40 85 -40 14
-2 85 -29 108 -41 15 -8 32 -14 39 -14 21 0 308 -113 315 -124 4 -6 8 -8 8 -4
0 4 17 1 37 -6 21 -8 74 -26 118 -39 44 -14 111 -37 149 -51 38 -14 78 -28 90
-31 51 -11 178 -45 187 -50 13 -9 166 -51 218 -61 13 -3 35 -11 50 -18 14 -7
32 -11 39 -9 6 3 12 1 12 -5 0 -5 16 -9 35 -10 20 -1 40 -4 45 -7 11 -7 38
-14 82 -22 15 -3 25 -9 22 -14 -6 -11 4 -11 31 1 14 5 26 2 39 -9 10 -9 20
-15 22 -13 2 1 5 2 7 1 21 -6 37 -5 37 3 0 7 5 7 13 -1 8 -6 17 -8 20 -4 4 3
7 1 7 -4 0 -6 -5 -13 -12 -15 -7 -3 -5 -7 6 -11 9 -4 15 -3 12 2 -3 4 8 8 24
9 17 0 30 -5 30 -11 0 -8 3 -7 9 2 7 11 12 11 31 -2 16 -11 28 -13 40 -7 10 5
21 6 26 2 5 -4 2 1 -5 11 -12 15 -12 17 3 11 9 -3 16 -15 16 -25 0 -13 5 -17
17 -12 11 4 12 8 5 11 -22 7 -12 19 16 18 15 -1 25 -5 22 -11 -3 -5 -8 -9 -12
-8 -5 2 -8 -1 -8 -6 0 -6 9 -9 21 -8 15 1 19 6 15 23 -4 13 -1 21 8 21 8 0 12
-7 9 -14 -6 -15 17 -14 28 1 4 5 18 10 32 11 19 2 24 -1 20 -12 -4 -11 -8 -11
-13 -3 -5 8 -10 8 -14 2 -3 -5 1 -13 10 -16 12 -5 14 -9 5 -20 -9 -10 -7 -17
6 -27 9 -8 14 -9 10 -2 -4 6 -3 14 3 18 6 4 7 11 4 17 -5 8 -1 9 12 4 15 -6
17 -5 7 5 -7 7 -13 18 -13 24 0 5 4 4 9 -4 5 -8 16 -11 26 -7 15 5 15 9 4 24
-11 14 -11 15 1 4 18 -16 44 -16 34 1 -5 8 -2 8 9 -2 9 -7 17 -11 17 -9 0 3
20 2 45 -2 24 -4 42 -3 40 1 -3 4 -2 9 2 12 5 2 3 2 -4 1 -6 -2 -14 5 -18 14
-5 13 -8 14 -14 3 -6 -10 -10 -9 -14 4 -4 9 -3 14 2 11 5 -3 14 1 21 9 15 18
45 21 34 3 -4 -7 -3 -8 5 -4 6 4 9 12 6 17 -4 5 0 9 8 9 9 0 17 14 21 35 5 22
11 33 18 29 7 -5 8 -2 4 5 -6 9 -13 8 -27 -5 -21 -19 -25 -29 -7 -18 7 4 8 3
4 -5 -4 -6 -12 -9 -17 -5 -6 3 -9 -2 -7 -12 3 -20 -29 -28 -53 -13 -10 6 -9
12 5 28 14 15 23 18 31 11 9 -8 14 -6 19 6 9 23 7 31 -4 14 -8 -13 -10 -13
-11 3 -4 53 -33 90 -36 46 -1 -13 3 -19 10 -16 7 3 13 -3 13 -14 0 -13 -3 -15
-13 -7 -10 8 -13 5 -13 -10 0 -12 -5 -24 -12 -28 -7 -4 -8 -3 -4 4 4 7 2 12
-4 12 -7 0 -10 6 -7 14 4 10 0 12 -14 9 -10 -3 -19 0 -19 6 0 6 5 11 10 11 6
0 10 9 10 21 0 16 -4 19 -21 14 -16 -5 -20 -3 -16 6 2 8 10 13 17 11 10 -2 10
1 -1 14 -12 16 -12 17 4 11 11 -4 16 -3 12 4 -4 6 -13 8 -20 5 -10 -3 -13 4
-13 25 1 22 6 29 21 29 20 0 20 0 2 14 -21 15 -40 12 -30 -5 6 -8 -9 -13 -29
-10 -5 1 -4 -5 3 -13 7 -9 17 -13 22 -10 5 3 6 -2 2 -11 -4 -13 -8 -14 -14 -4
-9 15 -39 21 -39 8 0 -5 6 -9 14 -9 8 0 13 -9 12 -23 -1 -18 -6 -23 -19 -19
-12 3 -16 10 -12 23 4 11 2 19 -5 19 -6 0 -8 5 -5 10 3 6 2 10 -3 10 -6 0 -8
10 -5 22 4 22 4 22 -12 -2 -9 -14 -14 -17 -11 -7 4 13 2 16 -7 10 -19 -12 -45
-14 -52 -3 -3 5 1 7 9 4 11 -4 14 0 12 13 -3 14 2 19 19 19 13 0 21 -4 19 -8
-8 -13 11 -9 25 4 9 8 11 8 8 2 -9 -15 24 -28 33 -14 8 13 0 70 -10 70 -4 0
-11 8 -15 18 -5 14 -4 15 6 4 20 -19 67 -15 79 8 7 12 16 17 28 13 14 -5 13
-3 -3 11 -17 15 -17 17 -2 12 9 -3 17 -1 17 5 0 6 5 7 12 3 7 -4 8 -3 4 4 -4
6 -14 8 -23 5 -13 -5 -15 -2 -10 11 4 10 3 15 -3 11 -6 -3 -10 -2 -10 4 0 5 6
12 13 15 6 3 -1 3 -16 1 -24 -3 -27 -2 -17 10 7 8 16 13 20 10 4 -3 13 2 19 9
19 23 -21 42 -46 23 -9 -6 -13 -5 -13 2 0 7 -4 10 -9 6 -5 -3 -12 -1 -16 5 -4
6 -12 7 -18 3 -8 -5 -8 -2 0 9 7 8 9 18 5 22 -4 5 4 6 18 4 17 -2 24 -8 22
-20 -4 -24 11 -23 33 2 10 11 15 20 10 20 -4 0 -14 -8 -22 -17 -8 -10 -11 -12
-7 -4 4 8 0 19 -10 26 -15 11 -15 13 -1 19 9 3 13 2 10 -4 -3 -6 -1 -10 4 -10
6 0 11 6 11 14 0 8 9 12 25 11 14 -2 23 0 21 4 -3 4 13 7 34 6 31 0 37 -3 34
-19 -3 -17 -2 -17 14 -2 15 12 21 13 32 3 10 -9 11 -9 6 0 -5 8 -1 13 9 13 9
0 13 -4 10 -10 -3 -5 -1 -10 4 -10 6 0 11 6 11 13 0 8 4 7 10 -3 8 -12 10 -11
10 6 0 12 7 27 15 34 17 14 17 14 32 -14 9 -16 11 -17 16 -2 4 11 3 15 -4 10
-8 -4 -9 1 -4 17 5 19 4 21 -4 9 -8 -11 -11 -12 -11 -2 0 7 -4 11 -8 8 -11 -7
-52 22 -52 36 0 7 7 3 15 -8 9 -12 14 -14 15 -6 0 7 5 10 10 7 15 -9 12 2 -5
19 -13 13 -13 15 5 21 11 4 17 11 14 17 -4 6 -2 8 4 4 6 -3 13 -2 16 3 4 5 21
7 39 5 24 -4 28 -2 17 5 -13 10 -13 11 0 11 13 0 13 1 0 10 -13 9 -13 11 0 20
13 8 12 10 -3 10 -10 0 -16 4 -13 9 4 5 -4 7 -15 4 -20 -5 -21 -3 -17 27 4 30
4 31 -9 15 -7 -11 -13 -15 -13 -9 0 5 -4 3 -9 -5 -5 -8 -11 -9 -15 -3 -3 6 1
18 10 26 8 9 12 16 7 16 -5 0 -14 -5 -20 -11 -9 -9 -11 -7 -9 6 2 11 12 19 24
20 12 1 25 5 29 10 5 4 0 5 -9 2 -20 -7 -35 9 -16 16 8 4 7 6 -4 6 -9 1 -25 4
-35 7 -14 5 -15 4 -4 -4 12 -9 11 -13 -4 -29 -16 -15 -18 -15 -13 -2 8 21 -10
39 -30 32 -9 -4 -13 -2 -9 4 3 5 0 10 -8 10 -8 0 -12 -4 -9 -8 2 -4 0 -10 -5
-13 -5 -4 -8 5 -6 19 1 16 -3 25 -12 25 -8 0 -11 5 -8 10 4 6 11 8 16 5 5 -4
19 1 31 9 12 9 17 16 10 16 -8 0 -10 5 -5 13 4 6 -6 4 -21 -7 -16 -10 -25 -13
-22 -7 4 6 2 11 -3 11 -6 0 -11 -4 -11 -9 0 -4 -19 -5 -42 -1 -51 10 -48 9
-48 15 0 3 0 10 0 17 0 6 7 3 15 -8 13 -16 14 -17 9 -1 -4 12 -2 17 7 15 8 -2
16 -6 19 -10 3 -3 10 5 17 18 11 24 10 25 -18 20 -29 -4 -48 7 -29 19 6 4 8
10 5 15 -3 4 2 10 10 14 8 3 15 0 15 -6 0 -7 5 -6 15 2 12 10 16 8 23 -11 9
-24 9 -24 16 -2 8 25 30 24 52 -3 8 -10 13 -13 9 -6 -3 6 -1 12 5 12 6 0 8 5
5 10 -3 6 -1 10 4 10 6 0 11 -4 11 -10 0 -5 6 -10 14 -10 10 0 13 8 11 21 -3
12 -1 18 3 15 7 -7 8 -11 11 -37 0 -6 8 -8 17 -5 8 3 12 2 9 -3 -3 -5 -1 -12
5 -16 5 -3 10 -1 10 6 0 8 4 8 13 1 13 -11 56 -6 58 7 5 42 4 49 -8 44 -7 -3
-10 -10 -7 -15 4 -6 1 -8 -7 -6 -8 3 -13 13 -11 23 2 12 -1 15 -10 9 -10 -6
-11 -5 -1 7 15 18 -1 41 -23 32 -8 -3 -14 0 -14 7 0 9 -3 10 -14 1 -11 -9 -15
-8 -20 5 -9 23 -8 24 17 15 12 -5 25 -9 30 -10 4 0 8 -1 10 -2 10 -4 69 -6 59
-2 -6 3 -10 9 -7 13 5 9 -20 27 -40 29 -5 1 -10 6 -9 11 1 6 2 20 3 33 2 12 5
17 7 10 3 -7 11 -10 18 -7 8 3 16 -2 19 -10 4 -9 11 -16 17 -16 6 0 8 5 5 10
-3 6 -1 10 5 10 7 0 9 -7 6 -16 -3 -9 -6 -18 -6 -20 0 -3 -5 -2 -12 2 -6 4 -8
3 -4 -4 8 -13 45 -7 60 9 8 8 5 8 -11 0 -13 -6 -23 -8 -23 -3 0 5 11 15 25 22
14 7 23 15 20 18 -2 3 -11 0 -18 -6 -11 -9 -13 -7 -12 9 1 11 8 25 16 31 11 8
11 9 -3 4 -9 -2 -19 0 -21 7 -2 7 -3 4 -1 -6 2 -15 0 -16 -12 -6 -7 6 -12 15
-9 19 3 5 0 12 -6 16 -6 3 -15 1 -19 -6 -12 -19 -29 -3 -23 23 l6 22 -19 -20
c-10 -12 -18 -19 -17 -16 2 2 -3 11 -10 20 -11 14 -10 14 6 2 9 -7 17 -9 17
-3 0 12 -26 23 -34 14 -4 -3 -15 -7 -26 -9 -19 -3 -19 -2 -2 15 9 11 20 18 23
16 3 -2 13 6 22 17 14 16 14 19 2 19 -8 0 -15 -5 -15 -12 0 -6 -3 -9 -6 -6 -9
9 15 48 29 48 7 0 6 -4 -3 -10 -16 -10 -8 -11 88 -14 23 0 42 -4 42 -8 0 -12
38 -10 45 2 4 6 11 8 16 5 5 -3 6 0 3 8 -4 11 6 16 41 19 26 2 48 1 51 -1 8
-8 74 -7 74 1 0 4 -9 17 -20 28 -11 11 -20 17 -20 14 0 -3 -7 2 -16 10 -16 17
-39 12 -28 -6 4 -6 -5 -9 -23 -7 -23 3 -36 -3 -55 -25 -22 -26 -25 -27 -40
-12 -14 13 -17 14 -22 1 -3 -8 -11 -15 -18 -15 -10 0 -10 2 0 9 11 7 11 9 -2
14 -8 3 -18 2 -21 -3 -4 -6 -12 -10 -18 -10 -8 0 -7 3 2 9 7 5 9 11 5 13 -5 3
-3 3 4 2 6 -2 12 2 12 9 0 8 3 8 9 -2 6 -9 10 -10 16 -2 5 9 11 9 22 -1 8 -6
21 -13 29 -14 18 -3 38 32 24 41 -5 3 -10 1 -10 -6 0 -9 -3 -9 -14 0 -7 6 -20
9 -29 5 -10 -4 -15 0 -13 10 3 21 7 24 45 31 32 5 33 5 20 -12 -7 -10 -1 -7
15 7 15 14 28 24 29 23 1 -1 15 -6 30 -12 21 -8 26 -8 21 0 -4 7 -1 10 7 7 8
-3 13 -10 12 -15 -1 -5 5 -10 12 -10 10 0 12 4 5 12 -6 7 -5 16 2 23 9 9 6 10
-10 7 -12 -3 -31 -7 -42 -9 -11 -3 -20 0 -20 5 0 6 -4 7 -10 4 -5 -3 -10 -4
-10 -1 0 3 12 12 28 20 l27 15 -29 1 c-16 0 -35 8 -43 18 -8 11 -12 12 -11 3
2 -7 -5 -15 -15 -16 -11 -2 -16 -1 -13 2 3 4 1 12 -5 20 -9 9 -8 13 0 13 6 0
11 -5 11 -11 0 -5 5 -7 11 -4 6 4 8 14 4 24 -5 12 -3 13 6 4 8 -8 19 -9 35 -3
16 6 24 6 24 -1 0 -5 6 -9 13 -8 30 4 40 -1 28 -14 -8 -10 -7 -14 4 -14 8 0
12 4 9 9 -3 4 1 11 9 14 17 6 18 31 1 31 -7 0 -10 -7 -7 -16 2 -9 -2 -5 -10 9
-9 14 -13 28 -11 32 2 4 -4 6 -15 5 -11 0 -17 -6 -14 -14 3 -7 10 -10 16 -6 6
3 7 1 3 -5 -10 -17 -14 -15 -30 16 -11 19 -15 22 -16 10 0 -10 -5 -18 -10 -18
-6 0 -9 3 -9 8 4 21 -3 31 -16 26 -13 -5 -13 -9 -3 -23 10 -13 10 -14 -2 -4
-17 16 -23 50 -9 58 6 4 19 -1 30 -11 10 -9 22 -14 25 -11 4 4 -1 10 -10 13
-14 5 -15 9 -4 15 9 6 6 9 -10 9 -16 0 -21 4 -16 13 6 9 4 9 -8 -1 -12 -9 -18
-10 -23 -2 -4 6 -17 10 -28 9 -12 0 -29 -1 -37 0 -29 2 13 21 48 21 36 0 82
25 82 45 0 26 -96 70 -165 77 -16 1 -38 9 -47 17 -10 8 -18 11 -18 8 0 -3 -17
1 -37 10 -21 8 -65 22 -98 31 -33 8 -71 22 -85 31 -13 9 -27 15 -30 14 -9 -4
-95 30 -102 41 -4 6 -8 8 -8 3 0 -6 -75 38 -90 53 -3 3 -18 12 -35 20 -16 8
-34 21 -38 27 -4 7 -14 13 -21 13 -7 0 -22 9 -34 20 -12 12 -22 18 -22 15 0
-3 -12 5 -27 19 -15 14 -30 23 -35 20 -4 -3 -8 0 -8 5 0 6 -7 11 -15 11 -8 0
-15 5 -15 10 0 6 -7 10 -15 10 -8 0 -23 9 -32 20 -10 11 -22 20 -28 20 -6 0
-21 9 -33 20 -12 12 -22 18 -22 14 0 -3 -16 6 -35 20 -19 15 -35 24 -35 20 0
-4 -9 1 -20 11 -11 10 -20 15 -20 11 0 -4 -7 -1 -15 6 -34 31 -43 36 -49 31
-3 -4 -6 -1 -6 5 0 7 -7 12 -15 12 -9 0 -18 7 -21 15 -4 8 -9 13 -13 10 -4 -2
-19 7 -34 21 -14 13 -30 24 -36 24 -5 0 -11 3 -13 8 -2 4 -29 29 -61 56 -41
34 -56 53 -52 65 5 12 4 13 -6 4 -9 -9 -16 -7 -30 12 -11 13 -19 28 -19 35 0
6 -4 8 -10 5 -5 -3 -10 -1 -10 4 0 6 -5 11 -11 11 -6 0 -47 36 -91 80 -45 44
-85 80 -89 80 -5 0 -9 7 -9 16 0 8 -4 13 -9 9 -5 -3 -12 4 -16 15 -3 11 -10
19 -14 17 -4 -1 -23 13 -42 30 -19 18 -58 54 -88 80 -99 87 -242 239 -234 247
4 3 1 6 -6 6 -20 0 -102 90 -95 103 4 7 4 9 0 5 -8 -7 -48 27 -56 47 -2 6 -14
19 -25 30 -38 38 -46 52 -30 52 8 0 15 -5 15 -10 0 -6 3 -7 7 -4 3 4 12 2 20
-4 8 -7 13 -8 13 -1 0 10 57 1 80 -13 7 -5 11 -4 8 1 -4 5 198 9 493 9 274 0
499 3 499 6 0 3 12 6 28 5 15 -1 42 2 60 5 17 4 34 4 36 0 3 -4 20 -6 38 -4
18 2 49 5 68 7 19 1 55 8 80 15 25 8 50 14 55 16 6 1 24 8 40 14 17 7 35 14
40 15 6 1 54 17 109 35 111 38 201 46 220 20 6 -9 24 -19 39 -23 15 -3 26 -10
23 -15 -3 -4 0 -8 7 -8 48 -2 137 -44 137 -65 0 -3 14 -9 30 -13 17 -4 30 -11
30 -16 0 -6 4 -8 10 -4 5 3 18 -3 30 -15 11 -11 25 -20 30 -20 6 0 10 -4 10
-8 0 -5 16 -17 35 -28 19 -10 35 -22 35 -26 0 -5 6 -8 14 -8 7 0 24 -10 37
-22 14 -13 28 -23 31 -23 4 0 16 -8 27 -17 11 -9 22 -14 25 -11 3 3 8 -2 12
-11 3 -9 10 -14 14 -11 5 3 14 -1 22 -8 7 -7 21 -16 31 -20 9 -3 17 -11 17
-17 0 -5 7 -10 15 -10 9 0 18 -7 21 -15 4 -8 10 -13 14 -10 5 3 14 0 22 -7 7
-7 31 -22 53 -34 83 -43 141 -77 159 -93 16 -13 18 -13 11 -1 -6 10 -2 9 12
-3 12 -10 27 -20 35 -21 13 -2 75 -37 93 -53 6 -5 13 -10 17 -11 29 -7 138
-65 138 -73 0 -5 3 -8 8 -7 8 2 64 -23 72 -33 5 -5 38 -21 50 -23 3 -1 22 -9
43 -19 21 -10 47 -19 57 -20 11 -1 20 -4 20 -8 0 -8 81 -43 93 -41 4 1 7 -3 7
-9 0 -6 6 -9 14 -6 7 3 18 1 23 -4 5 -5 23 -12 39 -15 16 -3 34 -7 39 -8 6 -1
20 -7 32 -14 12 -7 29 -12 37 -12 9 0 16 -5 16 -11 0 -5 5 -7 10 -4 6 3 16 3
23 -2 6 -4 17 -8 22 -10 6 -1 21 -4 35 -8 14 -3 47 -8 73 -12 26 -3 50 -10 53
-14 3 -5 18 -9 34 -9 15 0 30 -4 32 -10 2 -5 12 -11 23 -13 11 -1 25 -5 30 -8
13 -8 68 -23 77 -21 4 1 25 -5 48 -13 23 -8 46 -13 50 -10 5 3 14 0 22 -7 7
-7 22 -14 33 -15 27 -3 70 -11 70 -13 0 -3 37 -9 85 -15 25 -3 65 -8 90 -12
25 -4 48 -6 53 -5 4 1 7 -3 7 -9 0 -6 6 -9 14 -6 7 3 26 -1 41 -9 16 -8 39
-15 52 -16 12 -1 23 -5 23 -8 0 -3 15 -7 33 -8 18 -1 44 -5 57 -8 14 -3 39 -7
55 -9 30 -4 38 -5 130 -26 28 -6 58 -12 68 -12 9 -1 17 -4 17 -8 0 -4 8 -6 18
-4 9 1 21 0 27 -3 5 -3 30 -7 55 -8 25 -1 45 -3 45 -4 0 -2 33 -9 67 -14 15
-3 32 -7 38 -11 10 -6 59 -16 93 -18 9 -1 17 -4 17 -7 0 -3 15 -6 33 -7 43 -1
60 -6 69 -18 5 -6 8 -5 8 3 0 9 6 10 18 4 9 -4 73 -7 142 -5 122 2 153 5 215
17 33 6 36 7 145 31 90 20 308 29 326 14 16 -13 64 -19 64 -8 0 5 8 9 18 9 20
0 114 32 122 41 3 3 21 14 40 24 19 10 37 21 40 24 3 3 21 17 40 30 19 14 46
34 59 45 44 39 212 206 206 206 -3 0 8 13 24 29 16 16 27 32 24 35 -4 3 -1 6
5 6 7 0 12 5 12 11 0 7 8 19 18 28 9 9 31 36 47 61 17 25 33 47 38 48 4 2 7
12 7 22 0 10 7 20 15 24 8 3 15 10 15 17 0 6 9 22 20 36 11 14 17 29 14 34 -3
5 -1 9 4 9 5 0 15 13 22 30 7 17 16 30 20 30 7 0 22 33 24 55 1 6 7 16 14 23
6 7 12 20 12 28 0 9 5 12 12 8 6 -4 8 -3 5 3 -3 5 2 27 13 49 35 74 59 130 72
172 7 23 16 42 19 42 4 0 7 12 7 26 0 15 6 30 13 35 8 5 11 9 7 9 -4 0 -1 18
7 40 8 22 14 42 15 45 0 3 0 6 1 8 0 1 2 10 4 20 2 10 7 26 11 35 4 9 8 29 9
45 2 15 4 29 5 32 1 3 4 10 5 15 1 6 3 11 4 13 1 1 4 24 7 52 3 27 9 67 13 87
5 23 5 38 0 38 -6 0 -6 7 -1 18 7 14 9 167 2 167 -1 0 -3 11 -5 25 -2 14 -6
40 -9 58 -3 22 -1 32 7 31 19 -3 79 28 117 60 l35 29 -30 7 c-17 3 -45 10 -62
14 -20 6 -33 5 -33 0 0 -6 -7 -6 -17 -1 -10 5 -52 8 -94 7 -71 -1 -79 1 -108
27 -17 15 -30 31 -29 35 1 5 -16 22 -39 39 -29 22 -49 30 -74 28 -18 -1 -38 1
-44 4 -5 4 -19 8 -29 9 -11 2 -25 8 -33 14 -7 6 -13 8 -13 4 0 -4 -11 0 -25 9
-13 9 -31 16 -40 16 -9 0 -14 4 -11 8 2 4 -5 9 -16 9 -12 1 -25 8 -29 15 -5 7
-9 9 -9 4 0 -4 -11 -1 -25 8 -13 9 -30 16 -38 16 -14 0 -40 46 -33 58 2 4 -2
16 -10 26 -11 16 -18 18 -38 8 -13 -6 -27 -20 -31 -32 -4 -12 -12 -20 -18 -17
-7 2 -37 12 -67 22 -30 10 -58 23 -62 29 -4 6 -8 8 -8 4 0 -4 -11 -3 -25 2
-14 5 -36 12 -48 14 -37 8 -157 52 -168 63 -13 13 -18 44 -35 232 -8 90 -30
119 -75 95 -25 -12 -44 -39 -41 -56 1 -5 -2 -8 -7 -8 -7 0 -22 -38 -21 -55 0
-3 -6 -21 -14 -40 -17 -39 -16 -36 -16 -65 0 -28 -27 -26 -91 8 -30 15 -80 38
-112 51 -31 13 -60 28 -64 33 -3 6 -7 51 -9 100 -2 49 -6 93 -9 99 -12 19 -45
8 -59 -18 -14 -29 -31 -92 -28 -105 1 -5 -7 -8 -18 -8 -11 0 -20 3 -20 8 0 4
-15 13 -32 21 -18 8 -62 32 -97 53 -34 21 -67 38 -71 38 -9 0 -23 27 -25 50
-1 8 -8 40 -14 71 -7 31 -14 79 -16 105 -6 90 -16 124 -35 124 -22 0 -36 -17
-46 -55 -4 -17 -9 -34 -13 -40 -3 -5 -6 -14 -7 -20 -6 -35 -26 -95 -32 -95 -4
1 -18 15 -32 32 -14 17 -43 49 -65 73 -70 73 -115 126 -115 136 0 5 -5 9 -12
9 -6 0 -9 2 -6 6 3 3 -10 22 -29 42 -54 57 -57 68 -25 80 15 6 53 11 85 10 31
0 60 2 63 5 3 3 19 1 35 -3 16 -5 42 -5 58 0 16 4 32 5 35 2 8 -8 70 -9 76 -1
3 3 19 2 35 -2 29 -8 31 -11 30 -61 -1 -45 16 -133 27 -143 2 -1 13 -6 25 -9
28 -9 38 12 48 100 9 87 12 99 21 97 5 0 38 -4 74 -8 96 -10 98 -12 93 -90 -6
-82 1 -111 27 -118 31 -8 84 43 162 157 4 6 68 11 154 11 155 1 174 -4 174
-46 0 -32 38 -23 60 14 20 33 20 33 92 31 91 -2 90 -2 84 -13 -11 -17 -36
-166 -36 -213 0 -35 4 -49 18 -55 68 -32 143 42 238 237 21 43 24 45 65 46 24
1 56 4 72 7 16 3 27 1 27 -5 0 -7 4 -7 13 -1 11 8 88 14 219 17 27 1 48 3 48
6 0 3 29 6 65 8 47 1 65 -1 66 -10 1 -7 2 -38 4 -69 3 -71 12 -97 36 -109 30
-16 55 4 70 55 7 25 16 45 20 45 3 0 6 7 6 15 0 8 8 32 18 55 14 31 24 40 44
42 40 2 55 5 71 11 8 3 22 5 30 5 8 0 26 3 40 6 14 2 41 7 61 10 20 3 44 8 53
12 17 6 17 1 11 -67 -4 -41 -9 -81 -10 -90 -4 -19 -7 -87 -6 -111 1 -10 10
-27 21 -38 34 -34 70 -4 143 115 24 39 56 102 71 140 42 107 49 118 76 122 13
2 29 8 34 13 6 6 20 10 33 10 13 0 23 5 23 10 0 6 6 10 14 10 11 0 14 -20 11
-105 -3 -108 5 -132 38 -119 9 3 36 54 61 113 48 115 116 292 116 303 0 4 5
19 12 35 14 35 15 39 17 62 1 23 23 22 54 -5 43 -35 62 -41 117 -39 30 2 58 3
61 4 4 1 7 13 7 28 0 14 8 32 18 40 10 7 14 13 10 13 -4 0 -1 7 6 15 26 28 34
40 41 58 6 17 27 24 27 9 0 -21 72 5 80 28 3 8 6 111 7 228 1 117 5 217 8 223
4 5 3 9 -2 9 -4 0 -8 69 -9 152 0 156 -14 343 -24 343 -7 0 -5 57 2 61 4 3 6
9 4 13 -3 4 -8 22 -11 40 -4 25 -2 31 7 25 10 -6 11 -4 1 7 -7 7 -13 22 -13
34 0 12 -5 26 -11 32 -8 8 -8 13 0 17 8 5 8 13 0 28 -6 11 -9 29 -6 39 3 10 2
17 -3 14 -4 -3 -11 21 -16 53 -8 60 -10 70 -14 75 -1 1 -4 13 -6 27 -5 31 -12
65 -14 65 -7 0 -5 47 2 51 4 3 5 11 1 17 -4 7 -16 41 -26 77 -40 147 -57 222
-51 232 3 4 1 8 -5 8 -5 0 -10 8 -9 18 0 30 -10 61 -37 110 -14 26 -27 58 -28
70 -1 12 -5 22 -9 22 -4 0 -8 8 -8 18 0 10 -11 40 -24 68 -25 49 -49 104 -50
115 -2 10 -50 104 -57 109 -6 5 -28 68 -30 85 0 6 -7 17 -15 26 -8 9 -11 19
-7 22 3 4 1 7 -6 7 -7 0 -9 5 -6 10 3 6 2 10 -2 10 -5 0 -17 19 -27 43 -30 73
-40 91 -55 110 -8 9 -10 17 -5 17 5 0 4 4 -1 8 -6 4 -21 31 -34 60 -14 28 -27
52 -30 52 -3 0 -12 15 -20 33 -8 17 -23 44 -33 60 -11 15 -16 27 -12 27 4 0
-3 9 -15 19 -12 11 -22 22 -21 25 3 18 -42 94 -77 131 -7 8 -13 20 -13 28 0 9
-3 17 -7 19 -12 5 -73 86 -73 96 0 5 -9 19 -20 32 -11 12 -17 27 -14 31 3 5 0
9 -6 9 -12 0 -59 50 -60 62 0 7 -29 44 -58 74 -7 8 -10 14 -7 14 16 0 -149
165 -168 167 -4 1 -22 7 -40 14 -18 6 -36 13 -42 13 -5 1 -19 6 -30 10 -47 19
-74 27 -140 42 -38 9 -82 18 -98 20 -15 2 -41 11 -58 19 -16 9 -46 18 -65 20
-19 3 -51 12 -72 21 -39 18 -56 23 -84 26 -10 1 -18 6 -18 10 0 4 -11 8 -25 8
-14 0 -25 5 -25 11 0 5 -4 8 -9 4 -5 -3 -12 -1 -16 4 -3 6 -13 7 -21 4 -15 -5
-87 13 -109 27 -5 4 -32 13 -60 20 -27 7 -54 17 -59 21 -6 5 -24 9 -41 9 -18
0 -35 3 -39 8 -4 4 -15 7 -24 8 -31 1 -72 16 -72 26 0 5 -4 7 -8 4 -5 -3 -33
4 -63 16 -30 11 -64 20 -77 20 -13 -1 -36 5 -51 13 -16 8 -31 11 -35 8 -3 -4
-6 -1 -6 5 0 7 -3 11 -7 10 -5 -1 -24 4 -43 11 -19 7 -46 15 -60 17 -38 4 -53
9 -80 24 -14 8 -27 15 -30 15 -3 0 -20 9 -37 18 -18 10 -33 14 -33 10 0 -5 -5
0 -11 10 -5 9 -17 17 -24 17 -8 0 -15 7 -15 16 0 8 -4 12 -10 9 -5 -3 -10 -1
-10 4 0 6 -3 10 -7 9 -5 -1 -21 4 -38 11 -16 7 -34 14 -40 15 -5 2 -23 9 -40
16 -16 7 -33 13 -37 12 -3 -1 -38 30 -76 68 -87 87 -217 261 -267 358 -21 39
-42 72 -48 72 -6 0 -7 3 -4 6 4 4 0 19 -7 33 -29 54 -106 222 -106 230 0 4 -9
25 -19 46 -19 40 -18 67 3 59 20 -7 49 21 52 51 3 32 -18 83 -53 131 -13 17
-23 38 -23 48 0 9 -11 43 -24 76 -14 33 -22 60 -20 60 3 0 -2 7 -10 16 -9 8
-16 23 -16 33 0 10 -3 21 -7 25 -4 3 -8 15 -10 26 -2 11 -19 52 -38 91 -20 38
-33 75 -29 81 5 7 2 8 -6 3 -10 -6 -12 -4 -7 8 4 10 1 17 -5 17 -6 0 -8 3 -5
7 4 3 2 12 -4 20 -6 7 -8 13 -4 13 5 0 1 8 -8 18 -8 9 -16 22 -17 27 -1 12
-96 143 -162 224 -26 32 -44 62 -40 66 4 5 2 5 -5 2 -12 -7 -84 58 -75 68 3 3
-2 5 -11 5 -10 0 -17 4 -17 9 0 13 -79 53 -91 46 -5 -4 -9 -2 -9 2 0 10 -27
15 -97 16 -30 0 -49 5 -46 10 4 6 1 7 -7 2 -7 -4 -90 -8 -184 -9 -94 -1 -175
-4 -181 -7 -5 -3 -62 -6 -125 -7 -105 -2 -212 -15 -250 -30 -18 -7 -16 -6 -66
-20 -50 -14 -86 -20 -180 -30 -59 -6 -81 -14 -123 -42 -28 -19 -51 -39 -51
-43 0 -5 -4 -5 -10 -2 -5 3 -10 -1 -10 -9 0 -9 -4 -16 -9 -16 -5 0 -33 -23
-62 -51 -79 -76 -92 -83 -121 -67 -13 7 -26 18 -30 23 -4 6 -8 6 -8 1 0 -5 -8
-3 -17 5 -10 8 -31 21 -48 29 -16 8 -32 18 -35 21 -3 4 -33 17 -67 29 -35 12
-63 27 -63 31 0 5 -6 9 -14 9 -12 0 -82 34 -141 68 -11 7 -63 26 -115 42 -52
17 -104 34 -115 39 -70 30 -275 109 -358 137 -145 51 -308 131 -314 154 -3 11
-8 20 -12 20 -3 0 -22 10 -41 22 -19 12 -41 23 -48 24 -8 1 -21 8 -30 16 -10
7 -26 18 -37 24 -49 27 -70 39 -75 44 -3 3 -26 19 -52 35 -27 17 -48 33 -48
38 0 4 -6 7 -14 7 -7 0 -25 11 -39 24 -14 13 -40 34 -59 47 -18 13 -38 28 -44
34 -7 5 -31 26 -55 45 -24 19 -56 47 -71 62 -16 14 -28 24 -28 20 0 -4 -10 3
-22 15 -35 34 -95 83 -102 83 -6 0 -35 23 -60 46 -7 6 -22 15 -34 18 -12 4
-22 11 -22 14 0 4 -17 16 -37 27 -21 11 -40 22 -43 25 -8 9 -98 50 -110 50 -5
0 -10 5 -10 10 0 6 -9 10 -20 10 -11 0 -20 5 -20 11 0 5 -3 8 -8 5 -4 -2 -37
9 -72 26 -36 16 -74 32 -84 34 -11 2 -22 7 -25 11 -3 5 -15 10 -26 11 -11 2
-24 7 -30 12 -10 7 -122 51 -140 54 -5 1 -16 5 -22 9 -7 5 -17 6 -22 2 -5 -3
-12 -1 -15 4 -5 7 -44 18 -96 26 -3 0 -11 4 -17 8 -7 5 -13 6 -13 3 0 -3 -21
1 -47 9 -27 8 -59 16 -73 19 -14 3 -52 12 -85 21 -33 8 -69 17 -80 20 -11 2
-40 9 -65 16 -90 22 -146 31 -197 33 -24 0 -43 3 -43 6 0 5 -139 7 -144 3z
m2981 -12503 c1 -11 -2 -22 -8 -25 -5 -4 -6 2 -2 11 5 14 3 16 -12 11 -15 -6
-16 -5 -5 8 17 20 25 19 27 -5z m90 -65 c0 -8 -4 -12 -9 -9 -5 3 -6 10 -3 15
9 13 12 11 12 -6z m108 -116 c11 -16 1 -19 -13 -3 -7 8 -8 14 -3 14 5 0 13 -5
16 -11z m-384 -24 c20 7 27 -9 9 -20 -6 -4 -8 -10 -5 -15 9 -14 -5 -38 -26
-43 -13 -3 -19 0 -19 10 0 12 -3 13 -13 4 -10 -8 -14 -7 -14 4 0 8 3 13 5 10
9 -9 32 17 25 28 -3 6 -1 7 6 3 6 -4 9 -12 6 -17 -4 -5 0 -9 8 -9 23 0 16 27
-10 39 -14 6 -21 16 -17 22 5 8 10 6 16 -5 6 -11 16 -15 29 -11z m-100 -142
c13 -16 12 -17 -3 -4 -10 7 -18 15 -18 17 0 8 8 3 21 -13z m94 7 c-3 -5 -12
-10 -18 -10 -7 0 -6 4 3 10 19 12 23 12 15 0z m49 -12 c-3 -4 -9 -8 -15 -8 -5
0 -9 4 -9 8 0 5 7 9 15 9 8 0 12 -4 9 -9z m-129 -22 c47 -1 59 -15 45 -51 -6
-15 -8 -30 -5 -35 8 -14 -13 -22 -37 -14 -21 6 -21 7 4 20 26 14 33 48 10 50
-7 1 -13 2 -14 4 -4 2 -41 11 -55 12 -7 1 -13 4 -13 8 0 4 -11 6 -25 5 -14 -2
-23 1 -19 6 3 5 20 6 37 3 18 -4 50 -7 72 -8z m88 -16 c-4 -16 -2 -19 11 -14
9 3 13 11 9 17 -3 5 -2 7 4 4 5 -3 9 -16 8 -29 -1 -13 2 -28 6 -34 5 -7 3 -11
-6 -11 -8 0 -13 3 -10 5 8 9 -17 32 -34 32 -10 0 -17 8 -17 19 0 11 5 19 11
18 5 -1 9 4 7 11 -1 8 2 11 7 8 5 -3 7 -15 4 -26z m128 13 c12 -16 12 -17 -2
-6 -9 7 -20 9 -24 5 -5 -4 -5 -1 -1 6 9 16 11 15 27 -5z m-151 -88 c0 -8 -4
-15 -8 -15 -5 0 -9 7 -9 15 0 8 4 15 9 15 4 0 8 -7 8 -15z m117 -1 c-3 -3 -12
-4 -19 -1 -8 3 -5 6 6 6 11 1 17 -2 13 -5z m-312 -124 c-2 -4 -18 -10 -35 -12
-36 -5 -36 13 1 23 27 7 42 2 34 -11z m-80 0 c3 -5 -1 -10 -10 -10 -9 0 -13 5
-10 10 3 6 8 10 10 10 2 0 7 -4 10 -10z m385 6 c0 -3 -4 -8 -10 -11 -5 -3 -10
-1 -10 4 0 6 5 11 10 11 6 0 10 -2 10 -4z m-342 -82 c-10 -9 -58 -12 -58 -3 0
5 14 9 32 9 17 0 29 -3 26 -6z m93 -41 c13 -16 12 -17 -3 -4 -10 7 -18 15 -18
17 0 8 8 3 21 -13z m91 -75 c-7 -7 -12 -8 -12 -2 0 14 12 26 19 19 2 -3 -1
-11 -7 -17z m-3381 -55 c13 -16 12 -17 -3 -4 -10 7 -18 15 -18 17 0 8 8 3 21
-13z m3365 2 c-7 -20 8 -19 29 1 15 16 16 16 13 -2 -2 -11 2 -18 10 -16 7 1
15 -5 18 -13 3 -8 9 -13 13 -10 4 2 8 -2 8 -9 0 -8 -8 -11 -20 -8 -15 4 -18 2
-12 -9 5 -8 4 -11 -1 -6 -9 8 -10 12 -13 40 -1 8 -4 7 -11 -3 -6 -10 -10 -11
-10 -2 0 6 -6 12 -14 12 -8 0 -17 -6 -19 -12 -4 -8 -6 -7 -6 4 -1 19 9 48 16
48 3 0 3 -7 -1 -15z m-3376 -19 c0 -2 -8 -10 -17 -17 -16 -13 -17 -12 -4 4 13
16 21 21 21 13z m80 -20 c0 -2 -9 -6 -20 -9 -11 -3 -18 -1 -14 4 5 9 34 13 34
5z m3255 -25 c-9 -8 -36 -10 -30 -2 2 4 11 8 20 8 8 0 13 -3 10 -6z m44 -33
c0 7 6 10 11 7 16 -10 11 -23 -7 -20 -10 1 -25 -3 -33 -9 -13 -10 -13 -9 -1 7
12 15 12 17 -2 12 -8 -4 -18 -2 -22 4 -3 6 1 11 10 11 8 0 19 8 23 18 5 13 8
11 13 -13 4 -16 7 -24 8 -17z m-3159 20 c0 -6 -3 -8 -7 -5 -3 4 -13 1 -22 -6
-14 -11 -14 -10 -2 6 15 20 31 22 31 5z m23 -29 c-8 -8 -13 -7 -18 2 -5 8 -4
10 3 5 7 -4 12 -2 12 5 0 7 3 9 7 6 4 -4 2 -12 -4 -18z m-189 -15 c3 -8 2 -12
-4 -9 -6 3 -10 10 -10 16 0 14 7 11 14 -7z m261 -13 c3 -5 2 -12 -3 -15 -5 -3
-9 1 -9 9 0 17 3 19 12 6z m45 3 c0 -8 -19 -13 -24 -6 -3 5 1 9 9 9 8 0 15 -2
15 -3z m2616 -51 c3 -24 4 -25 19 -13 8 7 15 9 15 5 0 -4 -7 -13 -16 -19 -14
-11 -14 -13 2 -27 16 -13 17 -12 11 4 -5 12 -3 17 5 15 6 -2 12 -12 14 -21 1
-10 -2 -14 -9 -10 -7 4 -8 0 -4 -11 4 -9 3 -15 -2 -11 -5 3 -11 1 -13 -5 -2
-6 -21 -3 -48 6 -57 20 -57 20 -11 19 22 0 37 -3 35 -7 -2 -4 0 -9 5 -12 16
-10 24 14 11 30 -10 12 -16 12 -28 2 -13 -10 -14 -10 -8 0 4 6 2 12 -3 12 -6
0 -11 5 -11 11 0 5 4 8 9 4 5 -3 13 0 17 6 5 8 3 9 -7 4 -12 -8 -12 -6 0 8 7
9 10 17 6 17 -4 0 -15 -10 -26 -22 -10 -13 -18 -18 -19 -11 0 7 -6 10 -13 7
-8 -2 -13 3 -13 14 0 16 8 19 41 18 24 -1 40 -6 41 -13z m-2371 -26 c6 -4 -2
-4 -16 2 -15 5 -30 7 -33 4 -3 -4 -6 -1 -6 7 0 10 -4 10 -17 -1 -16 -13 -17
-12 -5 3 11 14 18 15 40 6 15 -7 32 -16 37 -21z m2447 -17 c6 0 8 7 4 15 -4
13 -2 14 14 5 11 -6 20 -8 20 -5 0 3 8 1 18 -4 10 -5 40 -11 65 -12 26 -2 47
-6 47 -11 0 -4 5 -8 11 -8 5 0 8 4 5 8 -3 5 1 9 9 9 10 0 12 -4 5 -12 -5 -7
-6 -15 -2 -20 4 -4 -4 -2 -17 5 -13 6 -26 8 -30 4 -3 -5 -12 -9 -18 -10 -28
-2 -33 -4 -33 -15 0 -5 6 -7 13 -4 6 4 3 0 -8 -9 -11 -8 -26 -20 -32 -26 -14
-12 -16 -9 -7 14 3 9 11 13 18 9 6 -4 5 1 -3 10 -7 9 -17 14 -22 11 -8 -5 -13
12 -12 43 0 6 -6 9 -13 6 -8 -3 -12 -8 -10 -12 2 -3 -6 -13 -18 -22 -20 -16
-21 -15 -23 10 0 14 -4 37 -7 51 -5 22 -5 22 5 -2 6 -16 15 -28 21 -28z
m-6037 30 c-3 -5 -16 -10 -28 -9 -20 1 -20 2 3 9 14 4 26 8 28 9 2 1 0 -3 -3
-9z m3471 -19 c-4 -5 0 -11 6 -14 7 -2 9 -8 5 -13 -9 -10 -28 16 -21 28 3 4 7
8 10 8 3 0 3 -4 0 -9z m-3458 -26 c-3 -3 -9 2 -12 12 -6 14 -5 15 5 6 7 -7 10
-15 7 -18z m6058 -17 c-1 -7 -6 -19 -10 -27 -7 -11 -5 -13 7 -8 11 4 17 1 17
-7 0 -18 -37 -9 -44 11 -3 7 -2 11 3 8 5 -3 12 -1 16 5 3 5 0 10 -7 10 -9 0
-9 3 2 10 19 12 19 12 16 -2z m-3191 -28 c3 -5 1 -10 -4 -10 -6 0 -11 5 -11
10 0 6 2 10 4 10 3 0 8 -4 11 -10z m3149 -9 c4 -5 -3 -7 -14 -4 -23 6 -26 13
-6 13 8 0 17 -4 20 -9z m-5954 -24 c7 -10 9 -17 4 -16 -18 4 -44 -13 -37 -25
4 -6 -1 -5 -10 3 -20 16 -12 35 12 27 11 -4 11 -2 -4 10 -16 14 -17 16 -2 11
9 -4 17 -1 17 5 0 6 1 9 3 7 1 -2 9 -12 17 -22z m-100 9 c0 -3 -4 -8 -10 -11
-5 -3 -10 -1 -10 4 0 6 5 11 10 11 6 0 10 -2 10 -4z m32 -21 c-8 -16 -9 -16
-15 -1 -4 10 -3 15 3 11 6 -3 10 -1 10 6 0 7 3 10 6 6 3 -3 2 -13 -4 -22z
m2778 9 c0 -1 -3 -9 -6 -18 -5 -13 -8 -13 -20 -1 -18 18 -18 21 6 21 11 0 20
-1 20 -2z m-5170 -30 c0 -8 -19 -13 -24 -6 -3 5 1 9 9 9 8 0 15 -2 15 -3z
m8213 -16 c3 -9 8 -10 16 -2 13 12 71 6 71 -7 0 -5 6 -9 14 -9 8 0 18 -9 21
-20 4 -12 11 -17 18 -13 18 11 65 16 49 5 -11 -7 -11 -11 0 -19 27 -20 34 -21
34 -3 0 14 -3 16 -13 8 -10 -8 -12 -6 -9 13 3 13 5 29 5 34 1 6 6 3 12 -5 7
-10 12 -11 15 -4 3 7 13 10 24 7 15 -4 16 -8 7 -18 -7 -7 -14 -11 -17 -10 -3
2 -7 -5 -7 -16 -1 -10 2 -19 6 -19 4 0 7 -11 7 -25 0 -22 -9 -26 -12 -4 -1 5
-2 12 -3 15 0 4 -9 0 -18 -7 -11 -9 -14 -10 -10 -2 9 15 -34 28 -58 19 -11 -4
-14 -2 -9 6 5 7 0 9 -13 6 -16 -4 -19 -1 -16 12 3 10 -1 21 -8 25 -7 5 -10 4
-5 -3 3 -6 2 -13 -4 -17 -5 -3 -12 6 -16 20 -4 16 -13 25 -26 25 -19 0 -19 -1
3 -20 13 -10 18 -19 12 -20 -7 0 -13 5 -13 11 0 5 -4 8 -9 4 -6 -3 -15 3 -21
12 -10 16 -10 16 -5 -3 4 -16 0 -23 -16 -27 -16 -4 -19 -3 -10 6 18 18 13 27
-14 27 -24 0 -32 10 -18 23 11 11 31 8 36 -5z m-8198 -8 c-3 -5 -1 -10 5 -10
6 0 9 -4 6 -9 -3 -5 1 -14 9 -21 17 -14 20 -30 4 -30 -5 0 -7 5 -4 10 3 6 1
10 -5 10 -6 0 -14 10 -19 23 -8 21 -6 37 5 37 3 0 2 -4 -1 -10z m8522 1 c11
10 14 10 9 2 -4 -7 -3 -13 3 -13 6 0 8 -7 4 -16 -3 -9 0 -20 8 -26 11 -8 10
-9 -4 -4 -12 4 -17 2 -14 -6 2 -7 17 -12 33 -11 19 2 24 0 15 -6 -9 -6 -10
-11 -2 -15 6 -4 9 -12 6 -17 -9 -13 -23 -11 -21 4 0 6 -1 12 -4 13 -23 4 -51
28 -46 40 3 9 1 12 -4 9 -6 -3 -11 -1 -11 4 -3 21 -4 26 -14 41 -8 13 -7 13 8
1 14 -11 20 -11 34 0z m77 -3 c-3 -4 -11 -5 -19 -1 -21 7 -19 12 4 10 11 0 18
-5 15 -9z m-6160 -23 c3 -8 1 -17 -4 -20 -6 -4 -10 -1 -10 6 0 8 -4 8 -15 -1
-16 -13 -20 -3 -9 24 6 17 30 11 38 -9z m5956 15 c0 -5 -5 -10 -11 -10 -5 0
-7 5 -4 10 3 6 8 10 11 10 2 0 4 -4 4 -10z m-6210 -10 c0 -5 -2 -10 -4 -10 -3
0 -8 5 -11 10 -3 6 -1 10 4 10 6 0 11 -4 11 -10z m185 -9 c3 -5 2 -12 -3 -15
-5 -3 -9 1 -9 9 0 17 3 19 12 6z m6130 -39 c4 -10 0 -12 -11 -8 -14 5 -15 4
-4 -9 10 -12 11 -18 1 -28 -10 -9 -11 -8 -5 6 4 12 2 17 -7 15 -7 -2 -13 2
-14 7 0 6 -3 15 -7 21 -4 6 3 10 17 10 14 0 27 -6 30 -14z m-6189 -24 c4 -7 3
-8 -4 -4 -7 4 -12 0 -12 -10 0 -10 -3 -15 -6 -11 -7 6 2 37 10 37 3 0 8 -5 12
-12z m6048 -13 c-4 -8 -10 -12 -15 -9 -14 8 -10 24 6 24 9 0 12 -6 9 -15z
m-6089 -15 c-3 -5 -12 -10 -18 -10 -7 0 -6 4 3 10 19 12 23 12 15 0z m6161
-16 c-1 -8 -6 -17 -10 -21 -4 -4 -6 -1 -4 7 2 8 -3 14 -10 12 -8 -1 -11 1 -8
6 8 14 34 10 32 -4z m124 6 c8 -5 11 -10 5 -10 -5 0 -17 5 -25 10 -8 5 -10 10
-5 10 6 0 17 -5 25 -10z m-197 -13 c3 -8 0 -14 -7 -14 -7 0 -13 6 -13 14 0 7
4 13 8 13 4 0 9 -6 12 -13z m120 -31 c-4 -6 1 -6 13 -2 14 5 16 4 8 -4 -17
-17 -56 8 -40 26 13 13 29 -3 19 -20z m-6187 -8 c4 4 2 -1 -5 -11 -11 -14 -17
-15 -28 -5 -10 8 -11 14 -4 16 6 2 9 9 5 15 -3 7 1 4 9 -5 8 -10 18 -14 23
-10z m82 -10 c-2 -8 6 -13 19 -12 14 1 20 -3 16 -13 -3 -8 -8 -11 -11 -9 -3 3
-11 1 -19 -6 -11 -8 -12 -7 -8 5 4 8 1 18 -4 22 -6 3 -9 11 -6 16 9 13 15 11
13 -3z m2571 -24 c-10 -13 -7 -14 22 -9 21 3 29 2 21 -3 -16 -11 -52 -10 -52
1 0 4 0 14 0 23 0 8 5 12 10 9 8 -5 7 -11 -1 -21z m-125 -55 c-2 -4 2 -10 8
-12 8 -4 7 -6 -3 -6 -9 -1 -19 5 -22 12 -3 8 1 14 9 14 7 0 11 -4 8 -8z m3516
-3 c0 -3 -4 -8 -10 -11 -5 -3 -10 -1 -10 4 0 6 5 11 10 11 6 0 10 -2 10 -4z
m114 -19 c3 4 6 1 6 -5 0 -12 -21 -11 -54 3 -11 5 -21 3 -26 -4 -5 -9 -9 -8
-13 4 -4 9 -3 13 3 10 6 -3 10 -2 10 4 0 6 14 4 34 -4 18 -8 36 -11 40 -8z
m-3585 -27 c11 -24 11 -24 -3 -6 -9 11 -16 24 -16 30 0 12 5 7 19 -24z m132 2
c-7 -2 -18 1 -23 6 -8 8 -4 9 13 5 13 -4 18 -8 10 -11z m3474 -2 c-3 -5 -12
-10 -18 -10 -7 0 -6 4 3 10 19 12 23 12 15 0z m89 1 c3 -5 0 -14 -7 -19 -10
-8 -13 -6 -14 9 -2 19 11 26 21 10z m-514 -14 c0 -8 -7 -14 -15 -14 -25 0 -17
17 13 26 1 1 2 -5 2 -12z m-3174 -24 c-6 -6 -36 9 -36 18 0 5 9 4 20 -3 10 -7
18 -14 16 -15z m3591 15 c7 -1 10 -5 7 -10 -3 -4 -14 -3 -25 2 -11 6 -24 8
-29 5 -5 -3 -11 -1 -14 4 -4 5 6 7 21 5 16 -3 33 -5 40 -6z m-6427 -2 c0 -3
-4 -8 -10 -11 -5 -3 -10 -1 -10 4 0 6 5 11 10 11 6 0 10 -2 10 -4z m6060 -12
c0 -8 -19 -13 -24 -6 -3 5 1 9 9 9 8 0 15 -2 15 -3z m425 -4 c-3 -5 -12 -10
-18 -10 -7 0 -6 4 3 10 19 12 23 12 15 0z m-5485 -4 c0 -3 -4 -8 -10 -11 -5
-3 -10 -1 -10 4 0 6 5 11 10 11 6 0 10 -2 10 -4z m5177 -16 c-1 -21 -12 -26
-22 -10 -3 6 -1 10 5 10 6 0 8 5 5 10 -3 6 -2 10 4 10 5 0 9 -9 8 -20z m353
-2 c0 -6 -6 -5 -15 2 -8 7 -15 14 -15 16 0 2 7 1 15 -2 8 -4 15 -11 15 -16z
m-6410 -17 c0 -5 -6 -14 -14 -20 -12 -10 -14 -9 -11 6 2 10 4 19 4 21 2 6 21
1 21 -7z m-85 -19 c-3 -3 -11 0 -18 7 -9 10 -8 11 6 5 10 -3 15 -9 12 -12z
m-141 -4 c-3 -4 -9 -8 -15 -8 -5 0 -9 4 -9 8 0 5 7 9 15 9 8 0 12 -4 9 -9z
m6497 -11 c-10 -9 -11 -8 -5 6 3 10 9 15 12 12 3 -3 0 -11 -7 -18z m-3593 -28
c3 -11 1 -11 -7 1 -9 12 -11 11 -11 -7 0 -13 -3 -23 -7 -23 -5 0 -8 11 -8 24
0 26 26 30 33 5z m3444 13 c-6 -5 -19 -17 -27 -28 -15 -19 -15 -19 -8 1 7 21
22 35 38 35 6 0 4 -4 -3 -8z m323 -1 c-9 -8 -36 -10 -30 -2 2 4 11 8 20 8 8 0
13 -3 10 -6z m-7935 -21 c0 -4 -11 -7 -24 -6 -13 0 -22 6 -19 12 5 13 43 7 43
-6z m7665 10 c-3 -5 -12 -10 -18 -10 -7 0 -6 4 3 10 19 12 23 12 15 0z m55 6
c0 -2 -7 -7 -16 -10 -8 -3 -12 -2 -9 4 6 10 25 14 25 6z m-7675 -21 c6 0 9 -8
7 -18 -3 -17 12 -24 21 -9 2 4 2 2 1 -5 -4 -17 13 -26 19 -11 4 8 6 9 6 2 1
-6 -7 -18 -16 -25 -10 -8 -14 -9 -10 -2 8 13 -3 22 -35 28 -13 3 -24 9 -26 15
-2 6 -8 7 -14 4 -5 -3 -4 3 3 14 7 12 18 18 24 14 5 -4 15 -7 20 -7z m4160
-16 c4 -5 0 -18 -9 -28 -15 -16 -15 -19 2 -34 10 -10 21 -14 25 -11 3 3 10 -3
16 -13 7 -15 7 -20 -4 -20 -7 0 -11 6 -8 13 4 10 0 11 -20 1 -14 -6 -23 -15
-21 -19 3 -4 -3 -5 -12 -1 -13 5 -15 3 -9 -8 4 -8 -4 -1 -19 15 -27 30 -33 41
-17 31 5 -3 12 4 16 15 3 11 12 20 18 20 7 0 4 5 -6 11 -14 8 -16 14 -6 25 14
17 45 19 54 3z m-2975 -9 c0 -5 -2 -10 -4 -10 -3 0 -8 5 -11 10 -3 6 -1 10 4
10 6 0 11 -4 11 -10z m37 -5 c0 -8 -4 -12 -9 -9 -5 3 -6 10 -3 15 9 13 12 11
12 -6z m40 -4 c0 -11 -5 -18 -9 -15 -4 3 -5 11 -1 19 7 21 12 19 10 -4z m6438
1 c-3 -3 -11 0 -18 7 -9 10 -8 11 6 5 10 -3 15 -9 12 -12z m-7605 -32 c0 -5
-7 -7 -15 -4 -8 4 -15 8 -15 10 0 2 7 4 15 4 8 0 15 -4 15 -10z m45 2 c-2 -3
1 -14 7 -26 10 -19 10 -20 -5 -7 -10 7 -17 10 -17 5 0 -10 -20 17 -20 28 0 4
9 6 20 5 10 -1 17 -3 15 -5z m-88 -27 c0 -8 -4 -12 -9 -9 -5 3 -6 10 -3 15 9
13 12 11 12 -6z m173 -5 c7 -14 7 -20 0 -20 -5 0 -10 7 -10 16 0 9 -5 12 -12
8 -7 -4 -8 -3 -4 4 10 16 14 15 26 -8z m-10 -30 c8 -5 11 -10 5 -10 -5 0 -17
5 -25 10 -8 5 -10 10 -5 10 6 0 17 -5 25 -10z m3830 -16 c0 -8 -19 -13 -24 -6
-3 5 1 9 9 9 8 0 15 -2 15 -3z m-3714 -26 c4 -7 3 -8 -4 -4 -7 4 -12 0 -12
-10 0 -10 -3 -15 -6 -11 -7 6 2 37 10 37 3 0 8 -5 12 -12z m874 4 c0 -5 -7 -9
-15 -9 -8 0 -15 4 -15 9 0 4 7 8 15 8 8 0 15 -4 15 -8z m-759 -19 c13 -16 12
-17 -3 -4 -10 7 -18 15 -18 17 0 8 8 3 21 -13z m68 -57 c0 -7 -2 -6 -6 2 -2 6
-8 10 -12 8 -4 -3 -8 1 -8 9 0 11 4 12 14 4 7 -6 13 -17 12 -23z m91 -8 c0 -4
-6 -8 -14 -8 -8 0 -17 4 -20 8 -2 4 4 8 15 8 10 0 19 -4 19 -8z m635 -47 c-1
-8 -12 -21 -24 -29 -20 -13 -21 -13 -15 3 5 13 4 16 -4 11 -7 -4 -12 -2 -12 5
0 6 8 9 20 6 22 -6 28 8 8 16 -7 3 -3 5 8 4 13 -1 21 -7 19 -16z m-110 -10
c-9 -8 -36 -10 -30 -2 2 4 11 8 20 8 8 0 13 -3 10 -6z m1926 -14 c-10 -9 -11
-8 -5 6 3 10 9 15 12 12 3 -3 0 -11 -7 -18z m134 -35 c-3 -3 -11 0 -18 7 -9
10 -8 11 6 5 10 -3 15 -9 12 -12z m1011 -2 c0 -12 -4 -16 -9 -11 -5 5 -6 14
-3 20 10 15 12 14 12 -9z m-656 -100 c10 0 22 -5 25 -10 5 -8 -32 -8 -42 1 -2
1 -7 2 -12 3 -5 0 -13 5 -18 10 -5 5 -3 6 5 2 7 -4 12 -2 13 6 0 10 2 10 6 1
2 -7 13 -13 23 -13z m480 -54 c-7 -7 -13 -7 -20 0 -6 6 -3 10 10 10 13 0 16
-4 10 -10z m37 -17 c2 -12 -1 -18 -7 -14 -5 3 -10 16 -10 27 0 26 13 16 17
-13z"/>
<path d="M11957 4889 c7 -7 15 -10 18 -7 3 3 -2 9 -12 12 -14 6 -15 5 -6 -5z"/>
<path d="M3871 3451 c-8 -5 -9 -11 -3 -15 5 -3 12 1 16 9 6 17 6 18 -13 6z"/>
<path d="M8016 3381 c-4 -5 -2 -12 3 -15 5 -4 12 -2 15 3 4 5 2 12 -3 15 -5 4
-12 2 -15 -3z"/>
<path d="M12293 5135 c0 -7 8 -10 19 -7 27 7 29 17 4 18 -13 1 -23 -4 -23 -11z"/>
<path d="M12346 5098 c3 -5 10 -6 15 -3 13 9 11 12 -6 12 -8 0 -12 -4 -9 -9z"/>
<path d="M12255 5020 c-3 -6 1 -7 9 -4 18 7 21 14 7 14 -6 0 -13 -4 -16 -10z"/>
<path d="M12255 4922 c3 -3 22 -6 42 -6 21 -1 43 -5 49 -8 11 -7 24 -1 24 12
0 3 -27 6 -60 6 -33 0 -58 -2 -55 -4z"/>
<path d="M12230 4879 c0 -5 5 -7 10 -4 6 3 10 8 10 11 0 2 -4 4 -10 4 -5 0
-10 -5 -10 -11z"/>
<path d="M12060 4735 c-7 -9 -10 -18 -6 -22 3 -3 6 -1 6 5 0 6 8 12 18 14 11
2 13 6 6 11 -7 4 -17 0 -24 -8z"/>
<path d="M12173 4696 c1 -6 -6 -10 -15 -8 -10 2 -18 -2 -18 -8 0 -6 5 -8 12
-4 8 5 9 2 4 -11 -5 -15 -4 -16 8 -6 16 13 25 5 21 -21 -2 -11 2 -15 11 -11 8
3 14 10 14 16 0 5 10 2 23 -9 20 -17 20 -17 -2 8 -13 15 -28 25 -32 22 -5 -3
-9 2 -9 10 0 20 29 21 36 2 8 -22 32 -28 30 -8 -2 9 -7 16 -12 15 -5 -1 -16 4
-24 11 -18 16 -50 17 -47 2z"/>
<path d="M12074 4646 c11 -9 14 -16 7 -16 -7 0 -9 -5 -5 -11 5 -8 10 -6 16 5
15 26 27 18 23 -14 -3 -25 -1 -30 18 -30 17 0 19 2 7 10 -8 5 -11 12 -7 16 3
4 13 1 22 -6 12 -10 15 -10 15 4 0 9 -3 15 -7 15 -24 -4 -43 3 -40 13 1 7 -8
13 -19 14 -12 0 -28 4 -35 8 -8 4 -5 0 5 -8z"/>
<path d="M12150 4570 c-9 -6 -10 -10 -3 -10 6 0 15 5 18 10 8 12 4 12 -15 0z"/>
<path d="M12110 4555 c0 -8 6 -15 14 -15 8 0 23 -2 33 -5 10 -3 6 1 -10 8 -15
7 -24 16 -21 20 4 4 2 7 -4 7 -7 0 -12 -7 -12 -15z"/>
<path d="M11950 4420 c0 -5 5 -10 11 -10 5 0 7 5 4 10 -3 6 -8 10 -11 10 -2 0
-4 -4 -4 -10z"/>
<path d="M12070 4369 c0 -5 5 -7 10 -4 6 3 10 1 10 -5 0 -6 5 -8 11 -4 8 4 7
9 -2 15 -19 12 -29 11 -29 -2z"/>
<path d="M8658 4199 c2 -16 8 -29 12 -29 12 0 7 49 -6 54 -6 2 -9 -7 -6 -25z"/>
<path d="M12083 4170 c-5 -19 -6 -20 -20 -3 -11 14 -11 11 1 -9 15 -25 15 -27
-5 -33 -16 -5 -18 -9 -9 -15 7 -4 10 -12 6 -18 -4 -6 2 -8 16 -4 12 3 17 7 10
10 -6 2 -12 8 -12 13 0 6 6 7 13 3 6 -4 9 -4 5 1 -4 4 0 14 10 22 9 8 11 11 3
7 -11 -5 -13 -1 -9 20 6 30 -1 35 -9 6z"/>
<path d="M12000 4159 c0 -5 5 -7 10 -4 6 3 10 8 10 11 0 2 -4 4 -10 4 -5 0
-10 -5 -10 -11z"/>
<path d="M8496 4115 c4 -8 8 -15 10 -15 2 0 4 7 4 15 0 8 -4 15 -10 15 -5 0
-7 -7 -4 -15z"/>
<path d="M8955 4090 c-3 -5 -1 -10 4 -10 6 0 11 5 11 10 0 6 -2 10 -4 10 -3 0
-8 -4 -11 -10z"/>
<path d="M9162 4050 c9 -14 14 -16 20 -7 12 18 10 23 -12 24 -17 1 -18 -1 -8
-17z"/>
<path d="M12053 4053 c1 -18 4 -20 17 -10 25 19 26 20 8 14 -9 -3 -19 -1 -21
6 -3 7 -4 2 -4 -10z"/>
<path d="M8368 3998 c2 -10 6 -18 7 -18 1 0 5 8 7 18 3 11 0 19 -7 19 -7 0
-10 -8 -7 -19z"/>
<path d="M11701 3991 c-8 -5 -9 -11 -3 -15 5 -3 12 1 16 9 6 17 6 18 -13 6z"/>
<path d="M8344 3958 c-4 -7 -3 -8 5 -4 6 4 14 0 17 -8 3 -9 10 -13 15 -10 5 3
3 12 -5 20 -18 17 -23 17 -32 2z"/>
<path d="M8437 3929 c7 -7 15 -10 18 -7 3 3 -2 9 -12 12 -14 6 -15 5 -6 -5z"/>
<path d="M5635 3920 c-6 -10 1 -14 18 -11 5 1 6 -3 2 -9 -6 -10 9 -15 30 -10
6 1 6 -2 2 -6 -11 -12 -37 -14 -37 -3 0 5 -5 9 -11 9 -5 0 -7 -4 -4 -10 3 -5
0 -10 -7 -10 -7 0 -2 -6 12 -13 14 -7 27 -9 28 -5 2 4 8 8 13 8 6 0 7 -4 4
-10 -4 -6 1 -7 11 -3 10 4 15 2 12 -3 -4 -5 9 -10 27 -10 19 0 31 4 28 8 -3 5
-11 7 -19 4 -8 -3 -14 -1 -14 4 0 6 -8 10 -19 10 -14 0 -18 6 -15 26 2 19 -1
24 -12 20 -8 -3 -14 1 -14 9 0 17 -26 20 -35 5z"/>
<path d="M5420 3881 c-15 -29 4 -34 31 -10 13 11 18 18 12 14 -7 -3 -13 -1
-13 4 0 18 -19 12 -30 -8z m24 0 c3 -5 -1 -11 -9 -14 -9 -4 -12 -1 -8 9 6 16
10 17 17 5z"/>
<path d="M8226 3794 c-8 -20 0 -32 14 -18 5 5 5 15 1 22 -6 11 -10 10 -15 -4z"/>
<path d="M8250 3800 c0 -5 5 -10 10 -10 6 0 10 5 10 10 0 6 -4 10 -10 10 -5 0
-10 -4 -10 -10z"/>
<path d="M11709 3770 c-5 -30 -2 -35 23 -37 15 -1 30 2 33 7 3 5 -9 7 -27 5
-26 -3 -29 -2 -15 6 9 6 15 14 12 20 -8 12 -25 12 -26 -1z"/>
<path d="M8290 3739 c0 -5 5 -7 10 -4 6 3 10 8 10 11 0 2 -4 4 -10 4 -5 0 -10
-5 -10 -11z"/>
<path d="M8235 3720 c3 -5 8 -10 11 -10 2 0 4 5 4 10 0 6 -5 10 -11 10 -5 0
-7 -4 -4 -10z"/>
<path d="M11835 3722 c3 -3 -1 -12 -8 -20 -11 -13 -9 -14 11 -1 26 16 28 26 7
26 -8 0 -13 -3 -10 -5z"/>
<path d="M5349 3683 c-1 -5 -2 -12 -4 -18 -1 -5 -3 -17 -4 -25 -1 -13 -2 -13
-11 0 -9 13 -10 13 -10 0 0 -13 -2 -13 -9 -1 -5 8 -17 16 -25 17 -9 1 -14 -2
-10 -7 3 -5 10 -6 16 -3 6 4 8 -2 4 -17 -3 -13 -3 -18 0 -11 5 10 9 9 20 -5
13 -17 14 -17 7 2 -6 17 -5 18 9 7 12 -10 17 -10 26 0 6 7 10 17 10 21 0 5 4
12 8 15 4 4 4 2 1 -4 -4 -6 0 -19 7 -29 10 -14 15 -15 21 -5 5 8 4 11 -2 7 -6
-4 -13 0 -17 8 -3 8 3 19 12 25 13 8 14 10 2 9 -8 -1 -24 -1 -35 0 -17 1 -18
3 -5 11 10 6 11 10 3 10 -7 0 -14 -3 -14 -7z"/>
<path d="M11808 3672 c4 -11 1 -13 -8 -7 -9 5 -11 4 -6 -4 5 -8 12 -9 19 -3 7
5 19 11 27 14 9 3 5 7 -12 10 -20 4 -25 2 -20 -10z"/>
<path d="M5216 3655 c4 -8 8 -15 10 -15 2 0 4 7 4 15 0 8 -4 15 -10 15 -5 0
-7 -7 -4 -15z"/>
<path d="M11826 3644 c-5 -14 -4 -15 9 -4 17 14 19 20 6 20 -5 0 -12 -7 -15
-16z"/>
<path d="M11907 3645 c3 -8 9 -12 14 -9 12 7 11 11 -5 17 -10 4 -13 1 -9 -8z"/>
<path d="M5250 3641 c0 -5 7 -12 16 -15 14 -5 15 -4 4 9 -14 17 -20 19 -20 6z"/>
<path d="M11936 3633 c-6 -14 -5 -15 5 -6 7 7 10 15 7 18 -3 3 -9 -2 -12 -12z"/>
<path d="M11866 3604 c-4 -9 -4 -19 -1 -22 2 -3 7 3 11 12 4 9 4 19 1 22 -2 3
-7 -3 -11 -12z"/>
<path d="M11940 3602 c0 -5 7 -9 15 -9 8 0 12 4 9 9 -3 4 -9 8 -15 8 -5 0 -9
-4 -9 -8z"/>
<path d="M5275 3590 c-16 -7 -17 -9 -3 -9 9 -1 20 4 23 9 7 11 7 11 -20 0z"/>
<path d="M11888 3579 c-14 -15 -14 -18 -2 -23 9 -3 12 -1 9 4 -3 6 4 10 17 9
13 0 17 -3 11 -6 -7 -2 -13 -9 -13 -15 0 -7 5 -6 14 2 15 12 11 44 -4 35 -5
-3 -10 -2 -12 3 -1 4 -11 0 -20 -9z"/>
<path d="M5376 3578 c3 -5 10 -6 15 -3 13 9 11 12 -6 12 -8 0 -12 -4 -9 -9z"/>
<path d="M8070 3583 c0 -5 4 -14 9 -21 7 -11 9 -11 14 1 3 8 3 18 0 21 -9 8
-23 7 -23 -1z"/>
<path d="M8180 3586 c0 -2 8 -10 18 -17 15 -13 16 -12 3 4 -13 16 -21 21 -21
13z"/>
<path d="M5393 3543 c4 -6 2 -13 -5 -15 -8 -3 -6 -6 4 -10 17 -7 19 15 3 29
-4 4 -5 3 -2 -4z"/>
<path d="M11830 3484 c0 -9 -5 -12 -12 -8 -7 4 -8 3 -4 -5 6 -9 11 -9 22 0 7
6 11 15 8 20 -8 14 -14 11 -14 -7z"/>
<path d="M11890 3440 c-12 -7 -10 -9 8 -7 12 0 22 5 22 9 0 11 -12 10 -30 -2z"/>
<path d="M11825 3420 c-3 -5 -1 -10 4 -10 6 0 11 5 11 10 0 6 -2 10 -4 10 -3
0 -8 -4 -11 -10z"/>
<path d="M5230 3372 c0 -5 7 -9 15 -9 8 0 12 4 9 9 -3 4 -9 8 -15 8 -5 0 -9
-4 -9 -8z"/>
<path d="M11716 3323 c-6 -14 -5 -15 5 -6 7 7 10 15 7 18 -3 3 -9 -2 -12 -12z"/>
<path d="M11590 3319 c0 -5 5 -7 10 -4 6 3 10 8 10 11 0 2 -4 4 -10 4 -5 0
-10 -5 -10 -11z"/>
<path d="M11736 3313 c-6 -14 -5 -15 5 -6 7 7 10 15 7 18 -3 3 -9 -2 -12 -12z"/>
<path d="M11772 3321 c-11 -7 -11 -9 0 -14 9 -3 15 1 15 9 0 8 -1 14 -1 14 -1
0 -7 -4 -14 -9z"/>
<path d="M11673 3301 c1 -15 4 -17 14 -9 7 5 10 14 7 19 -10 16 -23 9 -21 -10z"/>
<path d="M5185 3297 c-11 -7 -22 -13 -24 -14 -2 -2 1 -9 7 -16 7 -8 9 -16 6
-19 -2 -3 2 -8 11 -12 9 -3 13 -2 10 4 -3 6 -2 10 4 10 5 0 11 -5 13 -10 2 -6
11 -1 21 11 18 21 18 21 -12 14 -33 -7 -43 9 -19 33 15 15 9 14 -17 -1z"/>
<path d="M11705 3291 c-3 -5 -2 -12 3 -15 5 -3 9 1 9 9 0 17 -3 19 -12 6z"/>
<path d="M11831 3291 c-8 -5 -20 -7 -27 -4 -6 2 -15 -1 -20 -8 -4 -8 -3 -10 5
-5 6 4 20 2 29 -5 9 -7 14 -9 10 -5 -4 5 0 15 10 22 19 15 14 18 -7 5z"/>
<path d="M11880 3296 c0 -3 9 -10 20 -16 11 -6 20 -8 20 -6 0 3 -9 10 -20 16
-11 6 -20 8 -20 6z"/>
<path d="M5255 3251 c-3 -5 -2 -12 3 -15 5 -3 9 1 9 9 0 17 -3 19 -12 6z"/>
<path d="M4310 3238 c0 -4 5 -10 10 -13 6 -3 10 0 10 7 0 9 3 9 10 -2 8 -13
10 -13 10 2 0 11 -7 16 -20 15 -11 -1 -20 -5 -20 -9z"/>
<path d="M5205 3200 c-3 -5 -1 -10 4 -10 6 0 11 5 11 10 0 6 -2 10 -4 10 -3 0
-8 -4 -11 -10z"/>
<path d="M5135 3139 c-4 -6 -4 -13 -1 -16 3 -4 6 -1 6 6 0 9 5 9 20 1 11 -6
20 -8 20 -6 0 13 -39 26 -45 15z"/>
<path d="M5090 3051 c0 -6 4 -13 10 -16 6 -3 7 1 4 9 -7 18 -14 21 -14 7z"/>
<path d="M8097 3053 c-10 -9 -9 -23 1 -23 5 0 9 7 9 15 0 17 -1 18 -10 8z"/>
<path d="M8015 2959 c-4 -6 -4 -13 -1 -16 3 -4 6 -1 6 6 0 7 5 9 12 5 7 -4 8
-3 4 4 -9 15 -13 15 -21 1z"/>
<path d="M7758 2913 c6 -2 10 -9 7 -14 -4 -5 1 -6 10 -2 13 5 14 7 3 14 -7 5
-17 8 -23 8 -5 0 -4 -3 3 -6z"/>
</g>
</svg>
